<?xml version="1.0" standalone="no"?>
<!DOCTYPE svg PUBLIC "-//W3C//DTD SVG 20010904//EN"
 "http://www.w3.org/TR/2001/REC-SVG-20010904/DTD/svg10.dtd">
<svg version="1.0" xmlns="http://www.w3.org/2000/svg"
 width="1024.000000pt" height="785.000000pt" viewBox="0 0 1024.000000 785.000000"
 preserveAspectRatio="xMidYMid meet">

<g transform="translate(0.000000,785.000000) scale(0.100000,-0.100000)"
fill="#000000" stroke="none">
<path d="M9084 7670 c-43 -21 -101 -53 -129 -69 -27 -17 -72 -42 -100 -56 -51
-28 -126 -110 -146 -162 -6 -15 -14 -50 -18 -76 -8 -44 -7 -48 10 -44 11 3 22
1 25 -4 3 -5 2 -8 -3 -7 -4 2 -67 -30 -140 -70 l-132 -73 -70 52 c-53 38 -82
53 -115 56 -53 6 -60 2 -253 -134 -142 -100 -242 -163 -258 -163 -6 0 -34 18
-64 40 -68 51 -122 54 -191 12 -105 -64 -204 -129 -535 -351 -192 -130 -383
-257 -423 -284 -40 -26 -77 -45 -82 -42 -6 3 -10 21 -10 40 0 53 -8 66 -38 58
-21 -5 -24 -3 -18 12 5 15 4 16 -9 5 -19 -16 -19 -39 -1 -54 7 -6 16 -32 20
-58 l5 -47 -61 -46 c-34 -26 -74 -53 -89 -61 l-28 -14 -6 55 c-8 62 -20 76
-40 49 -13 -18 -14 -18 -20 -1 -4 9 -11 17 -16 17 -14 0 -11 -32 5 -44 7 -6
17 -34 20 -62 l6 -51 -80 -59 c-45 -32 -85 -60 -90 -62 -6 -2 -10 12 -10 32 0
19 -4 46 -10 61 -8 22 -13 24 -29 15 -28 -15 -35 -12 -20 7 12 14 12 16 -1 11
-18 -6 -26 -48 -11 -58 7 -3 14 -29 17 -56 l6 -49 -76 -55 c-41 -30 -82 -56
-90 -58 -10 -2 -16 11 -21 47 -8 57 -17 68 -35 46 -18 -22 -32 -18 -25 8 6 21
6 21 -9 3 -13 -17 -14 -22 -2 -35 7 -9 16 -38 20 -64 5 -43 3 -51 -17 -68 -49
-42 -147 -100 -157 -94 -5 3 -10 26 -10 49 0 49 -24 82 -33 46 -3 -11 -11 -20
-17 -20 -7 0 -10 8 -7 20 7 27 -10 26 -18 -1 -4 -13 -1 -27 9 -38 10 -11 16
-35 16 -62 0 -44 0 -45 -85 -104 -99 -70 -119 -74 -123 -27 -2 17 -6 32 -9 32
-3 0 -27 -16 -53 -35 -26 -19 -52 -35 -57 -35 -5 0 -14 -5 -21 -12 -9 -9 -4
-18 21 -39 l32 -28 -25 -18 c-13 -10 -71 -49 -129 -88 -142 -95 -145 -100
-132 -206 5 -46 10 -144 11 -217 l1 -133 -24 16 c-19 12 -23 22 -19 43 5 26 4
26 -15 10 -11 -10 -23 -18 -27 -18 -4 0 -30 -17 -59 -38 -29 -22 -161 -112
-294 -200 -169 -114 -250 -162 -270 -162 -31 0 -95 -42 -428 -278 -121 -86
-220 -163 -233 -182 -12 -19 -38 -43 -57 -54 -39 -24 -250 -168 -380 -259 -88
-62 -331 -229 -550 -378 -60 -42 -207 -142 -325 -224 -323 -223 -484 -331
-500 -337 -10 -3 12 -30 70 -84 47 -43 124 -116 172 -163 l87 -83 -62 -46
c-89 -66 -914 -648 -1117 -788 -47 -32 -125 -86 -173 -119 -47 -33 -87 -67
-87 -75 0 -8 12 -20 26 -27 21 -10 23 -9 15 1 -13 16 -4 27 15 19 16 -6 19 8
3 24 -7 7 5 21 40 47 48 34 88 52 47 21 -11 -8 -17 -17 -14 -21 4 -3 16 4 27
15 12 12 16 21 10 21 -8 0 -7 5 1 15 7 9 20 13 28 10 8 -3 24 3 34 12 11 10
23 17 27 16 3 -1 5 5 5 13 -2 21 81 75 95 61 8 -8 11 -8 11 1 0 7 -5 12 -12
12 -6 0 -3 7 8 15 26 19 35 19 28 -2 -4 -13 -3 -15 4 -5 5 7 18 15 28 16 10 2
18 8 17 14 -2 6 6 13 16 17 10 3 31 16 47 30 15 13 31 22 35 19 4 -2 10 3 13
12 6 15 4 15 -20 -1 -46 -30 -37 -8 11 25 26 18 49 29 52 26 4 -3 1 -6 -5 -6
-7 0 -12 -5 -12 -11 0 -6 6 -9 13 -6 6 2 12 11 12 21 0 9 11 26 25 36 34 26
47 25 24 -2 -19 -22 -19 -22 14 1 36 25 41 34 15 24 -29 -10 -6 9 91 77 80 55
91 60 102 46 11 -15 12 -15 18 0 9 23 8 24 -11 17 -10 -3 -3 6 16 21 27 20 37
23 44 13 6 -8 7 -7 4 5 -4 12 14 30 66 66 99 67 102 69 94 49 -9 -23 -2 -21
27 8 14 14 21 25 15 25 -6 0 -7 5 -4 10 4 6 14 9 23 8 10 -2 16 3 14 11 -2 9
3 11 13 7 9 -3 13 -2 10 4 -7 12 67 62 86 57 8 -2 10 -2 6 1 -9 5 11 32 24 32
5 0 6 -8 3 -17 -5 -15 -4 -15 4 -3 6 8 9 17 6 21 -2 4 3 12 12 19 12 11 17 10
30 -9 14 -19 41 -21 29 -1 -3 4 2 10 10 14 17 6 21 36 5 36 -6 0 -13 -7 -16
-15 -4 -8 -10 -15 -15 -15 -20 0 -7 19 31 45 22 15 37 31 35 36 -3 4 22 27 55
50 l60 43 -30 32 -31 31 25 17 c33 21 49 20 70 -3 17 -18 17 -20 -3 -40 -27
-27 -14 -27 19 -1 l25 20 -23 19 c-29 25 -28 47 2 66 27 18 48 12 79 -23 21
-23 30 -14 -123 -121 -50 -35 -89 -66 -86 -68 3 -3 19 5 35 17 20 13 38 19 51
15 11 -4 29 0 42 10 23 16 22 16 -12 10 -39 -7 -36 -1 24 38 32 21 43 24 55
14 12 -10 14 -9 9 4 -4 11 3 25 18 40 13 12 24 20 24 16 0 -3 15 8 33 24 34
31 80 49 110 41 9 -2 24 -16 33 -31 9 -15 33 -37 55 -49 23 -14 37 -28 33 -34
-5 -7 -2 -8 5 -3 14 8 84 -53 76 -65 -3 -4 4 -15 15 -25 11 -10 20 -16 20 -13
0 3 19 2 43 -4 49 -11 87 -43 87 -74 0 -12 7 -27 15 -34 8 -7 12 -17 8 -24 -3
-6 -3 -8 1 -4 10 8 47 -23 40 -34 -3 -4 3 -5 12 -1 13 5 16 2 12 -8 -4 -10 2
-14 20 -16 31 -1 76 -34 81 -59 3 -15 -3 -13 -35 11 l-39 28 29 -31 c17 -18
37 -32 46 -32 21 0 72 -54 63 -66 -5 -5 -4 -6 1 -2 11 10 78 -18 94 -39 6 -9
12 -23 12 -31 0 -12 -5 -11 -22 4 l-23 19 19 -22 c10 -13 22 -20 26 -18 4 2
16 -5 26 -16 16 -17 16 -22 4 -30 -12 -8 -11 -9 4 -7 10 2 21 -3 24 -11 3 -9
0 -11 -9 -7 -8 4 -5 1 6 -8 11 -8 29 -23 40 -34 11 -10 29 -24 40 -31 11 -8 7
-2 -8 13 -24 22 -26 27 -12 32 23 9 64 -15 79 -46 9 -19 10 -37 2 -73 -10 -43
-18 -52 -90 -107 -77 -58 -105 -73 -90 -47 5 7 0 6 -13 -3 -12 -8 -67 -46
-122 -83 -56 -38 -101 -70 -101 -71 0 -1 16 -2 36 -2 28 0 43 -8 70 -36 19
-20 34 -39 34 -42 0 -2 -17 -15 -37 -27 l-37 -23 54 -48 c58 -52 87 -65 46
-21 -32 34 -52 85 -30 76 10 -4 12 0 8 11 -9 25 7 19 48 -17 21 -17 63 -54 95
-82 31 -27 102 -93 158 -145 55 -53 131 -122 168 -154 l68 -59 32 30 c18 16
158 119 312 229 154 109 298 212 321 229 22 16 111 80 198 140 179 125 368
260 471 335 39 28 93 67 122 88 28 20 63 45 76 55 13 9 51 36 85 60 33 23 118
85 189 136 70 52 140 101 155 109 15 7 30 17 33 23 3 5 83 64 178 131 391 278
633 450 819 585 108 78 220 158 250 177 29 20 80 55 113 79 67 49 443 316 518
369 26 18 72 51 102 73 29 22 76 56 104 75 27 19 81 58 120 85 38 28 109 77
157 110 48 33 144 102 213 154 69 51 135 97 146 102 11 5 31 16 45 26 14 9 20
11 13 3 -7 -8 -13 -18 -13 -23 0 -10 39 1 58 16 11 9 11 13 -3 23 -17 13 -9
24 16 21 8 -2 29 -10 47 -19 18 -9 41 -14 50 -11 13 5 13 2 -4 -14 -30 -30
-62 -45 -69 -33 -8 12 -31 8 -77 -15 -36 -18 -58 -45 -37 -45 6 0 7 -5 3 -12
-4 -7 -3 -8 4 -4 20 12 13 -8 -8 -27 -22 -19 -35 -22 -25 -7 9 15 -24 25 -38
11 -9 -9 -6 -13 11 -17 12 -4 19 -11 15 -17 -7 -12 8 -4 49 26 15 11 24 25 21
30 -3 6 -1 7 5 3 14 -8 218 138 215 153 -2 6 3 8 11 5 7 -3 19 2 26 11 12 15
9 16 -29 11 -29 -3 -39 -2 -35 6 4 7 3 8 -4 4 -15 -9 -15 -12 3 -30 9 -9 11
-17 5 -21 -5 -3 -10 -1 -10 6 0 7 -4 8 -12 2 -15 -11 -28 -11 -45 0 -7 5 -17
5 -23 2 -6 -3 -7 1 -4 10 5 13 2 14 -20 5 -14 -5 -26 -7 -26 -5 0 4 191 143
254 185 12 8 42 31 67 51 70 57 150 109 168 109 9 0 4 -7 -13 -15 -17 -9 -62
-39 -102 -68 -65 -46 -72 -55 -71 -84 1 -35 17 -47 17 -13 0 25 22 26 44 1 11
-12 14 -21 7 -26 -6 -3 -11 -4 -11 -1 0 3 -12 -6 -27 -20 -16 -15 -29 -20 -33
-14 -4 7 -12 6 -23 -3 -11 -8 -14 -17 -8 -26 7 -11 22 -4 73 34 34 26 67 54
71 62 4 7 15 13 23 13 9 0 54 28 100 62 77 56 84 63 69 77 -12 13 -19 13 -35
3 -26 -16 -35 -15 -21 1 6 8 8 17 4 20 -8 9 30 9 51 1 9 -3 16 -12 16 -20 0
-8 3 -14 7 -14 7 0 143 102 143 108 0 7 -45 -11 -52 -22 -5 -8 -11 -7 -20 2
-9 9 -9 12 0 12 7 0 12 5 12 11 0 5 -4 8 -9 5 -15 -10 -43 6 -37 20 4 11 2 11
-14 2 -14 -9 -16 -15 -8 -26 6 -7 17 -11 25 -8 7 3 13 1 13 -4 0 -15 -21 -12
-40 5 -14 13 -22 10 -70 -25 -30 -22 -59 -40 -65 -40 -5 0 13 16 40 35 28 19
61 45 73 57 13 12 66 52 117 88 52 37 110 86 130 110 79 95 135 253 135 383 0
165 -86 352 -204 444 -52 40 -57 58 -51 163 3 41 7 116 9 165 2 50 7 137 11
195 6 99 5 107 -17 137 -13 17 -97 90 -188 161 -91 72 -172 136 -180 144 -139
122 -185 161 -237 202 -35 27 -63 52 -63 55 0 5 160 96 194 110 5 2 6 -4 3
-13 -5 -11 -1 -16 14 -16 11 0 18 -4 14 -9 -16 -27 164 -40 221 -16 18 7 35
11 38 8 3 -4 14 1 23 10 10 8 61 43 113 77 52 35 102 68 110 76 8 7 34 30 58
50 178 154 73 434 -164 434 -50 0 -73 -6 -140 -40z m-4 -44 c0 -3 -4 -8 -10
-11 -5 -3 -10 -1 -10 4 0 6 5 11 10 11 6 0 10 -2 10 -4z m-145 -226 c5 -8 11
-7 21 1 11 9 14 8 14 -6 0 -11 5 -15 15 -11 9 3 15 0 15 -9 0 -8 -5 -15 -11
-15 -6 0 -8 -9 -4 -20 8 -25 -2 -43 -18 -33 -7 4 -16 8 -22 9 -5 0 -16 2 -24
2 -8 1 -11 8 -7 19 4 9 1 20 -6 25 -10 7 -10 11 -1 14 7 3 9 12 6 20 -6 16 13
19 22 4z m-131 -185 c14 -13 26 -31 26 -40 0 -25 -19 -55 -35 -55 -8 0 -37
-13 -65 -30 -28 -16 -53 -30 -56 -30 -2 0 -22 -12 -43 -26 -45 -29 -58 -26
-106 27 -16 18 -23 28 -14 21 38 -29 217 68 238 129 12 35 21 36 55 4z m-216
-309 c62 -22 102 -65 102 -110 0 -45 -21 -88 -53 -109 -13 -8 -53 -18 -89 -22
-61 -7 -71 -5 -120 21 -29 16 -56 33 -61 39 -10 13 -1 105 11 117 6 6 8 17 5
24 -7 18 5 18 23 0 8 -8 11 -23 8 -33 -5 -17 -5 -17 6 0 9 14 9 22 -1 33 -15
18 -11 22 38 39 49 18 81 18 131 1z m-1363 -456 c10 -11 13 -20 7 -20 -6 0
-16 9 -22 20 -6 11 -9 20 -7 20 2 0 12 -9 22 -20z m168 -119 c43 -36 64 -58
57 -65 -6 -6 -16 -4 -27 5 -10 8 -48 39 -85 69 -37 29 -65 57 -62 62 8 12 40
-8 117 -71z m-352 -78 c13 -16 12 -17 -3 -4 -10 7 -18 15 -18 17 0 8 8 3 21
-13z m113 -63 c69 -55 90 -80 68 -80 -5 0 -19 9 -32 20 -13 11 -26 20 -29 20
-12 0 -100 88 -94 94 9 9 5 11 87 -54z m-232 -166 c76 -63 86 -74 65 -74 -17
0 -143 98 -151 118 -11 26 19 10 86 -44z m1718 52 c0 -3 -4 -8 -10 -11 -5 -3
-10 -1 -10 4 0 6 5 11 10 11 6 0 10 -2 10 -4z m-90 -71 c-7 -8 -20 -15 -29
-15 -11 0 -8 5 9 14 33 19 35 19 20 1z m-53 -11 c-3 -3 -12 -4 -19 -1 -8 3 -5
6 6 6 11 1 17 -2 13 -5z m-591 -112 c-4 -3 -14 2 -24 12 -16 18 -16 18 6 6 13
-6 21 -14 18 -18z m119 -67 c45 -36 71 -63 65 -69 -5 -5 -26 4 -52 25 -73 56
-117 97 -110 103 9 10 18 4 97 -59z m-1576 -112 c45 -37 81 -70 81 -75 0 -10
-27 -11 -32 0 -1 4 -36 33 -75 66 -68 54 -86 76 -64 76 5 0 46 -30 90 -67z
m1231 32 c7 -9 20 -13 28 -10 14 5 43 -16 136 -97 32 -28 36 -36 23 -41 -16
-6 -56 22 -105 76 -14 15 -45 38 -69 52 -42 25 -52 35 -34 35 5 0 14 -7 21
-15z m1650 -34 c0 -13 -58 -53 -70 -49 -12 4 -1 19 30 40 29 19 40 22 40 9z
m72 -48 c10 -9 18 -24 18 -34 0 -19 -78 -79 -103 -79 -27 0 -65 39 -60 60 7
26 23 26 23 0 0 -31 43 -36 80 -10 35 25 35 42 0 50 -13 3 -25 11 -28 18 -6
18 48 15 70 -5z m-673 -31 c14 -26 15 -101 2 -142 -6 -19 -11 -47 -11 -62 0
-16 -5 -28 -11 -28 -10 0 -8 97 2 168 4 23 -3 42 -14 42 -8 0 -56 -25 -106
-56 -86 -51 -113 -61 -97 -35 4 5 32 24 64 42 31 18 64 38 72 45 18 15 72 44
82 44 4 0 12 -8 17 -18z m-2512 -79 c66 -56 84 -78 63 -78 -12 0 -150 117
-150 127 0 18 21 5 87 -49z m2790 51 c-3 -3 -12 -4 -19 -1 -8 3 -5 6 6 6 11 1
17 -2 13 -5z m-1556 -31 c13 -16 12 -17 -3 -4 -10 7 -18 15 -18 17 0 8 8 3 21
-13z m-291 -13 c0 -5 -4 -10 -10 -10 -5 0 -10 5 -10 10 0 6 5 10 10 10 6 0 10
-4 10 -10z m392 -42 c75 -62 88 -74 88 -83 0 -16 -35 5 -99 59 -39 33 -68 63
-65 68 8 12 8 12 76 -44z m1740 -4 c21 -15 38 -29 38 -33 0 -3 -40 -33 -88
-67 -48 -34 -286 -201 -528 -373 l-442 -311 -4 -46 c-4 -60 16 -81 52 -54 l24
18 -24 21 -25 21 29 25 c26 24 30 25 50 10 36 -26 47 -28 64 -11 15 14 14 17
-7 37 l-23 22 23 18 c29 22 48 23 73 4 24 -18 26 -18 50 0 18 14 18 15 -5 34
-23 19 -24 19 -5 40 22 25 49 27 66 6 18 -22 32 -19 79 16 l42 30 -27 21 -27
22 29 22 28 23 32 -20 c28 -17 36 -18 53 -7 26 16 26 25 1 40 -28 18 -25 31
11 52 30 18 31 18 54 -4 24 -22 25 -22 52 -5 l27 18 -22 15 c-29 19 -28 36 3
56 24 16 27 15 55 -5 29 -22 30 -22 50 -4 20 18 20 18 0 32 -26 19 -25 34 6
57 25 18 26 18 50 -5 21 -20 28 -22 45 -11 18 12 27 9 72 -27 112 -86 133
-107 119 -123 -10 -12 -8 -18 8 -33 26 -23 25 -29 -6 -50 -25 -16 -28 -16 -60
1 -32 17 -35 17 -51 2 -15 -16 -15 -18 8 -37 l24 -21 -25 -20 c-31 -25 -36
-25 -67 0 -23 18 -27 18 -49 3 -30 -19 -30 -21 1 -45 l25 -20 -24 -19 c-31
-24 -44 -24 -71 1 -19 18 -23 19 -44 4 l-22 -16 22 -24 c18 -19 20 -26 10 -38
-21 -25 -49 -28 -79 -10 -28 16 -30 16 -70 -11 -23 -15 -42 -31 -42 -35 0 -4
9 -15 20 -25 26 -24 26 -27 -11 -49 -30 -18 -31 -18 -54 4 -19 18 -27 20 -44
11 -26 -15 -26 -23 0 -47 l21 -19 -28 -22 -28 -22 -29 21 c-25 18 -32 19 -53
8 -29 -16 -30 -26 -4 -42 26 -17 25 -29 -6 -52 -25 -18 -26 -18 -55 3 -24 18
-32 19 -49 9 -25 -16 -25 -20 0 -43 16 -14 17 -21 8 -32 -25 -30 -47 -35 -76
-15 -15 11 -33 17 -39 15 -18 -6 -16 -62 1 -69 36 -14 23 -35 -52 -87 -109
-76 -252 -177 -797 -567 -264 -189 -538 -384 -609 -434 -70 -50 -136 -97 -146
-104 -16 -12 -29 -4 -114 69 -95 82 -105 96 -86 115 6 6 11 57 13 114 l3 104
70 49 c64 45 69 47 72 27 2 -12 10 -24 18 -27 8 -3 14 -12 14 -20 0 -8 4 -12
9 -9 5 3 12 80 16 172 6 128 4 168 -5 177 -10 9 -12 8 -7 -6 4 -11 3 -16 -3
-12 -19 12 -10 42 16 54 22 10 30 9 46 -6 17 -15 19 -28 16 -90 -2 -40 -2 -73
0 -73 2 0 30 18 62 40 62 42 70 46 70 31 0 -5 -31 -32 -70 -60 -38 -28 -70
-56 -70 -62 0 -6 15 0 33 13 31 24 99 71 105 74 2 1 5 37 8 80 6 93 14 110 15
33 l1 -54 13 70 c18 94 18 125 0 145 -14 15 -13 18 9 30 21 11 27 10 43 -5 15
-16 18 -32 15 -97 l-2 -79 69 48 c66 46 69 50 77 98 l7 50 7 -35 6 -35 12 53
c17 75 15 129 -4 140 -14 8 -14 11 7 25 22 16 24 15 43 -5 16 -18 20 -33 18
-86 -2 -36 -5 -69 -8 -74 -11 -17 9 -7 63 32 31 22 60 40 65 40 22 0 2 -23
-59 -66 -38 -26 -70 -49 -72 -51 -2 -1 -2 -6 2 -9 3 -3 30 13 61 35 30 23 60
41 66 41 5 0 10 6 11 13 4 105 9 161 14 165 3 3 5 -7 5 -21 0 -15 5 -27 10
-27 6 0 10 16 10 35 0 43 0 44 11 72 6 17 3 27 -12 42 l-21 19 22 12 c16 9 25
8 38 -2 30 -23 32 -32 26 -100 -4 -38 -3 -68 1 -68 4 0 28 15 54 33 65 47 71
50 71 34 0 -7 -32 -36 -71 -63 -39 -26 -66 -50 -60 -52 11 -4 117 72 142 102
9 11 22 58 29 105 7 48 14 96 16 109 3 14 -1 25 -11 28 -21 8 -19 27 4 41 16
10 22 8 41 -12 21 -22 22 -31 16 -95 -7 -80 -11 -78 65 -23 51 36 59 39 59 21
0 -7 -30 -33 -65 -57 -36 -24 -65 -48 -65 -53 0 -5 27 10 61 33 42 30 63 39
68 31 4 -6 8 21 9 61 3 76 22 122 22 52 0 -59 7 -38 20 57 10 76 10 90 -4 110
-21 29 -20 35 5 49 17 9 24 7 41 -11 17 -18 20 -32 17 -100 l-4 -78 55 39 c60
42 70 46 70 27 0 -7 -30 -32 -65 -56 -36 -23 -65 -47 -65 -52 0 -6 25 8 55 31
30 23 61 39 68 36 9 -3 13 11 15 52 2 31 7 72 12 91 l8 35 1 -39 c1 -57 8 -42
20 48 9 65 9 83 -3 101 -13 19 -12 23 6 34 18 11 24 10 43 -11 21 -21 23 -29
16 -95 -4 -40 -5 -73 -3 -73 4 0 163 111 592 413 91 64 179 126 195 137 17 12
62 45 102 74 39 29 82 60 95 68 l23 16 -22 24 c-42 45 -27 51 29 12z m-3452
-25 c0 -6 -4 -7 -10 -4 -5 3 -10 11 -10 16 0 6 5 7 10 4 6 -3 10 -11 10 -16z
m-610 -30 c0 -14 -17 -10 -23 5 -4 10 -1 13 9 9 7 -3 14 -9 14 -14z m755 -69
c38 -32 71 -64 73 -70 8 -23 -22 -7 -76 39 -31 28 -68 59 -82 70 -23 19 -23
20 -5 21 11 0 51 -27 90 -60z m1355 20 c0 -5 -2 -10 -4 -10 -3 0 -8 5 -11 10
-3 6 -1 10 4 10 6 0 11 -4 11 -10z m28 -34 c-7 -8 -15 -12 -17 -11 -5 6 10 25
20 25 5 0 4 -6 -3 -14z m-277 -183 c77 -66 91 -83 68 -83 -11 0 -189 139 -189
147 0 1 9 3 21 3 11 0 56 -30 100 -67z m-2076 47 c3 -5 1 -10 -4 -10 -6 0 -11
5 -11 10 0 6 2 10 4 10 3 0 8 -4 11 -10z m35 -90 c0 -5 -7 -10 -15 -10 -8 0
-15 5 -15 10 0 6 7 10 15 10 8 0 15 -4 15 -10z m1807 -130 c46 -38 78 -72 73
-75 -11 -7 -170 121 -170 136 0 18 16 8 97 -61z m-1091 -101 c19 -11 41 -30
49 -42 34 -49 6 -141 -54 -171 -45 -24 -132 -31 -186 -15 -41 12 -50 20 -72
63 -18 36 -23 57 -18 83 3 18 10 31 15 28 5 -3 6 -13 3 -22 -4 -10 -2 -14 4
-10 12 7 51 -18 42 -27 -3 -4 -18 -2 -33 4 -25 9 -27 8 -21 -12 25 -88 138
-123 245 -77 55 23 67 41 42 61 -15 11 -15 11 -5 -3 11 -13 9 -18 -11 -29 -14
-7 -42 -14 -63 -15 -21 -1 -46 -6 -56 -10 -25 -10 -97 0 -114 17 -18 19 -9 38
32 68 19 14 35 30 35 36 0 13 70 36 70 23 0 -5 -4 -9 -10 -9 -5 0 -10 -11 -10
-25 0 -18 4 -23 15 -19 8 4 22 1 30 -6 9 -7 18 -10 21 -7 3 3 -3 11 -13 18
-16 10 -19 19 -13 49 l7 38 -33 -14 c-37 -15 -68 -18 -60 -6 2 4 -4 9 -15 9
-10 1 -19 -2 -19 -7 0 -5 -3 -16 -7 -26 -4 -11 -3 -15 4 -11 7 5 9 -1 6 -14
l-6 -21 -12 22 c-8 16 -14 19 -20 11 -5 -9 -12 -4 -21 15 -17 32 -18 30 43 61
40 20 58 23 111 19 40 -4 76 -13 98 -27z m744 1 c0 -5 -2 -10 -4 -10 -3 0 -8
5 -11 10 -3 6 -1 10 4 10 6 0 11 -4 11 -10z m111 -67 c44 -37 76 -69 70 -71
-11 -4 -62 35 -135 100 -71 65 -19 41 65 -29z m-1358 36 c13 -6 32 -24 41 -41
18 -29 18 -29 -2 -17 -12 7 -20 17 -19 22 1 5 -4 12 -10 14 -7 3 -13 0 -13 -6
0 -6 -4 -11 -10 -11 -5 0 -6 8 -3 17 5 12 2 15 -10 10 -17 -6 -23 4 -10 16 8
9 8 9 36 -4z m1681 -164 c-7 -17 -20 -20 -29 -6 -3 5 3 12 12 14 10 3 19 5 20
6 1 0 0 -6 -3 -14z m-1288 -70 c-11 -8 -24 -15 -30 -15 -5 0 -1 7 10 15 10 8
24 14 29 14 6 0 1 -6 -9 -14z m3368 -31 c4 -11 13 -14 27 -11 17 5 18 3 7 -11
-7 -9 -13 -19 -15 -21 -3 -5 -53 42 -53 52 0 14 28 7 34 -9z m-2279 -44 c-3
-5 -11 -10 -16 -10 -6 0 -7 5 -4 10 3 6 11 10 16 10 6 0 7 -4 4 -10z m-61 -39
c3 -5 -3 -11 -15 -14 -16 -4 -18 -3 -8 9 13 16 16 17 23 5z m2266 -8 c8 -4 19
-5 23 -4 5 1 6 -3 2 -9 -3 -5 -17 -7 -31 -4 -14 4 -31 1 -39 -6 -12 -10 -15
-9 -15 4 0 10 -4 14 -10 11 -5 -3 -7 0 -4 8 5 14 38 13 74 0z m-2310 -16 c0
-2 -15 -13 -32 -26 l-33 -22 28 25 c26 24 37 31 37 23z m-2103 -125 c14 -9 -7
-36 -58 -75 -37 -28 -55 -35 -44 -17 3 6 -1 10 -9 10 -25 0 -27 -16 -6 -43 15
-18 29 -25 54 -24 21 1 32 5 29 13 -6 17 55 64 83 64 39 0 64 -18 64 -45 0
-18 -14 -34 -55 -62 -30 -21 -54 -44 -55 -51 0 -22 63 -9 95 21 39 36 64 43
82 24 23 -22 10 -44 -47 -79 -49 -30 -50 -32 -33 -50 23 -22 69 -12 114 26 42
36 96 34 66 -2 -9 -13 -9 -14 1 -8 6 4 12 3 12 -3 0 -6 -23 -27 -50 -48 -50
-37 -50 -38 -31 -57 16 -16 23 -17 35 -7 10 8 16 9 21 1 9 -14 25 -13 20 3 -4
10 53 57 70 57 8 0 45 -34 45 -41 0 -4 -16 -19 -35 -34 -30 -22 -39 -24 -51
-14 -11 9 -18 9 -26 1 -9 -9 -7 -12 7 -12 15 0 17 -2 6 -9 -11 -7 -9 -13 8
-30 16 -16 26 -19 34 -12 17 14 55 -15 40 -30 -8 -8 -2 -19 20 -39 25 -22 36
-26 51 -18 15 8 24 5 44 -18 18 -19 22 -29 13 -32 -9 -3 -4 -13 15 -33 22 -23
24 -29 11 -29 -9 0 -17 4 -17 10 0 5 -4 9 -10 7 -5 -1 -29 19 -52 44 -24 26
-52 49 -62 50 -10 2 -24 13 -30 24 -13 23 -57 65 -65 62 -12 -4 -53 32 -47 41
3 5 -6 14 -19 20 -14 7 -25 16 -25 21 0 5 -10 11 -22 13 -13 2 -27 13 -32 24
-5 12 -34 36 -64 54 -36 21 -50 35 -42 40 13 8 0 44 -14 40 -24 -6 -69 17 -93
46 -15 19 -45 44 -65 54 -20 11 -44 33 -54 49 -9 15 -34 36 -55 45 -22 10 -39
22 -39 27 0 15 20 10 51 -12 17 -12 37 -18 48 -14 11 3 22 1 26 -5 5 -8 11 -4
19 11 20 41 92 71 123 51z m3190 -24 c-3 -7 -5 -2 -5 12 0 14 2 19 5 13 2 -7
2 -19 0 -25z m-2787 -37 c0 -5 -16 -22 -35 -38 l-34 -28 127 -111 c70 -60 271
-236 446 -390 176 -153 391 -341 477 -416 l158 -137 168 118 c92 64 242 170
332 235 170 122 191 135 191 118 0 -6 -51 -47 -112 -91 -62 -44 -165 -118
-228 -163 -289 -209 -332 -239 -344 -244 -13 -5 -71 44 -432 361 -87 77 -222
194 -299 260 -77 65 -178 153 -225 193 -47 41 -99 87 -115 101 -106 92 -185
164 -185 170 0 7 91 71 102 71 4 0 8 -4 8 -9z m1150 -152 c31 -6 29 -7 -17 -6
-29 0 -53 3 -53 7 0 13 13 19 24 13 5 -4 26 -10 46 -14z m70 7 c0 -3 -4 -8
-10 -11 -5 -3 -10 -1 -10 4 0 6 5 11 10 11 6 0 10 -2 10 -4z m-1673 -32 c-3
-3 -12 -4 -19 -1 -8 3 -5 6 6 6 11 1 17 -2 13 -5z m-678 -70 c-9 -11 -15 -11
-25 -3 -19 15 -18 17 11 17 21 0 23 -3 14 -14z m-36 -35 c-3 -11 -10 -16 -15
-13 -5 3 -7 12 -4 19 2 7 -1 18 -7 25 -9 9 -7 9 9 0 13 -8 20 -20 17 -31z
m497 37 c0 -2 -27 -22 -60 -45 -33 -23 -60 -40 -60 -37 0 5 110 86 117 86 1 0
3 -2 3 -4z m690 -56 c0 -5 -5 -10 -11 -10 -5 0 -7 5 -4 10 3 6 8 10 11 10 2 0
4 -4 4 -10z m-571 -43 c-2 -2 -25 -18 -51 -36 -27 -18 -48 -36 -48 -41 0 -6
-6 -10 -14 -10 -8 0 -37 -22 -64 -48 -28 -27 -48 -42 -44 -33 4 13 2 13 -15
-2 -12 -10 -28 -19 -36 -21 -8 -1 -22 -9 -31 -19 -36 -36 -24 -14 41 73 37 49
69 88 71 85 2 -2 -17 -30 -42 -62 -25 -32 -46 -61 -46 -65 0 -7 106 60 139 88
40 34 136 101 140 98 2 -2 2 -6 0 -7z m-259 -1 c0 -2 -27 -21 -60 -42 -34 -22
-58 -44 -55 -51 2 -8 -4 -13 -15 -13 -10 0 -22 -4 -25 -10 -3 -5 -11 -10 -18
-10 -17 0 8 22 92 79 74 51 81 55 81 47z m-15 -65 c-47 -21 -92 -36 -85 -28 7
8 103 46 115 46 6 0 -8 -8 -30 -18z m866 5 c-8 -9 -8 -16 -2 -20 5 -4 12 -2
16 4 9 14 45 12 45 -2 0 -15 -53 -53 -87 -63 -14 -4 -23 -2 -23 4 0 6 5 11 12
11 6 0 8 3 5 7 -4 3 -1 13 6 21 10 13 9 15 -5 10 -28 -11 -29 5 0 23 33 22 48
24 33 5z m-552 0 c-2 -2 -31 -6 -64 -9 -36 -3 -52 -2 -40 3 19 8 113 14 104 6z
m41 -16 c8 -5 11 -10 5 -10 -5 0 -17 5 -25 10 -8 5 -10 10 -5 10 6 0 17 -5 25
-10z m-5 -45 c-28 -20 -90 -65 -140 -101 -49 -36 -104 -74 -120 -84 -31 -19
-31 -19 -44 3 -13 20 -13 21 3 8 15 -13 26 -8 101 44 47 32 118 82 157 111 40
29 77 53 83 54 5 0 -13 -16 -40 -35z m-890 -55 c1 -13 -3 -19 -11 -16 -19 7
-41 -25 -48 -74 -7 -46 -29 -80 -53 -80 -7 0 -13 -7 -13 -15 0 -8 6 -12 14 -9
8 3 17 0 22 -7 4 -7 3 -10 -4 -5 -6 3 -13 2 -17 -4 -3 -5 -13 -10 -22 -10 -9
0 -31 -11 -49 -25 -18 -14 -41 -25 -51 -25 -63 1 -54 56 14 91 64 32 67 33 59
20 -4 -6 -2 -11 4 -11 7 0 10 6 7 14 -3 7 7 23 24 35 23 17 29 29 29 59 0 37
19 76 50 99 19 15 43 -5 45 -37z m1565 4 c0 -4 -12 -17 -27 -29 -21 -19 -29
-21 -45 -12 -23 15 -23 20 5 33 25 13 67 17 67 8z m-534 -12 c-3 -5 -44 -35
-91 -68 -48 -32 -100 -68 -115 -79 -96 -69 -122 -87 -125 -83 -2 2 37 32 86
67 79 55 88 65 77 80 -12 14 -11 14 4 3 15 -12 27 -7 90 37 75 52 83 57 74 43z
m-450 -58 c-4 -20 -10 -34 -12 -31 -3 3 -2 21 2 41 3 21 9 35 11 32 3 -3 2
-21 -1 -42z m235 19 c13 -16 12 -17 -3 -4 -10 7 -18 15 -18 17 0 8 8 3 21 -13z
m-831 -3 c0 -5 -4 -10 -10 -10 -5 0 -10 5 -10 10 0 6 5 10 10 10 6 0 10 -4 10
-10z m117 -12 c9 -7 4 -19 -20 -45 -18 -19 -31 -41 -29 -48 4 -21 -27 -83 -49
-99 -19 -13 -20 -18 -9 -31 10 -12 10 -15 -3 -15 -8 0 -38 -16 -66 -35 -44
-31 -53 -34 -76 -23 -14 6 -25 19 -25 28 0 19 99 97 142 112 28 10 32 17 43
83 7 43 51 98 69 88 6 -3 16 -10 23 -15z m1570 -23 c1 -5 -18 -23 -45 -39 -26
-16 -49 -31 -51 -33 -3 -2 5 -10 17 -19 12 -8 22 -22 22 -30 0 -11 -9 -9 -37
10 -28 17 -37 30 -35 46 1 13 -3 29 -9 36 -9 11 -7 14 9 14 12 0 26 -8 31 -17
10 -17 10 -17 11 0 0 9 7 17 16 17 8 0 13 4 10 9 -4 5 0 12 6 15 19 7 51 2 55
-9z m-546 -15 c-18 -4 -47 -18 -65 -31 l-31 -22 20 22 c24 28 51 40 85 39 20
0 18 -2 -9 -8z m-928 -48 c16 -17 15 -20 -13 -47 -17 -16 -30 -36 -28 -45 4
-28 -23 -90 -49 -110 -14 -11 -23 -23 -20 -26 6 -6 -104 -84 -118 -84 -13 0
-45 32 -45 45 0 6 23 26 50 44 28 18 50 37 50 42 0 5 7 9 16 9 9 0 12 -5 8
-12 -4 -7 -3 -8 5 -4 6 4 9 12 6 17 -4 5 -1 9 6 9 22 0 49 43 49 78 0 22 9 47
26 69 29 38 35 40 57 15z m851 -52 c10 -13 9 -13 -6 -1 -10 7 -18 21 -17 30 0
13 1 14 6 1 3 -8 11 -22 17 -30z m196 36 c0 -3 -15 -14 -32 -26 l-33 -22 30
26 c31 27 35 29 35 22z m530 -13 c0 -7 -19 -25 -42 -40 -24 -15 -45 -29 -47
-30 -3 -2 5 -13 17 -25 16 -17 24 -19 35 -10 11 9 18 7 35 -8 16 -15 23 -17
29 -7 13 20 77 48 82 35 4 -13 -34 -45 -72 -60 l-28 -10 22 -24 c17 -18 26
-21 40 -13 13 6 19 6 19 -1 0 -5 7 -10 15 -10 8 0 15 -4 15 -10 0 -5 5 -10 11
-10 6 0 9 6 6 14 -4 9 4 16 21 21 15 4 30 12 34 18 5 8 9 6 14 -6 7 -19 -27
-53 -63 -63 -28 -8 -29 -20 -3 -36 21 -13 27 -38 10 -38 -5 0 -10 5 -10 10 0
6 -6 10 -13 10 -13 0 -64 48 -59 56 6 11 1 25 -10 22 -21 -5 -88 42 -82 56 3
9 -11 22 -39 35 -46 22 -89 61 -69 61 17 0 15 16 -3 34 -24 24 3 31 29 7 l22
-21 22 29 c22 30 62 39 62 14z m-680 -33 c0 -5 -8 -10 -17 -10 -15 0 -16 2 -3
10 19 12 20 12 20 0z m55 -25 c-16 -14 -34 -25 -39 -25 -6 0 5 11 24 25 43 32
54 32 15 0z m-840 -34 c1 -11 -2 -18 -5 -16 -10 6 -43 -32 -46 -53 -5 -41 -25
-86 -44 -99 -24 -17 -27 -35 -3 -26 11 4 14 3 9 -5 -4 -7 -13 -12 -20 -12 -8
0 -37 -16 -65 -35 -28 -19 -57 -35 -64 -35 -20 0 -52 39 -41 49 33 32 132 103
151 107 24 6 30 22 35 84 4 46 56 96 77 75 8 -8 15 -23 16 -34z m754 -9 c13
-12 22 -24 20 -27 -6 -5 -89 70 -89 80 0 8 24 -10 69 -53z m161 26 c0 -6 -6
-5 -15 2 -8 7 -15 14 -15 16 0 2 7 1 15 -2 8 -4 15 -11 15 -16z m68 10 c-27
-26 -108 -79 -108 -71 1 4 24 24 53 45 52 36 81 50 55 26z m65 -35 c-7 -2 -19
-2 -25 0 -7 3 -2 5 12 5 14 0 19 -2 13 -5z m27 -49 c-7 -7 -20 -14 -29 -13
-10 0 -8 3 7 10 18 7 22 14 17 31 -5 20 -5 21 5 5 9 -14 9 -22 0 -33z m-1768
-20 c47 -40 54 -49 40 -58 -5 -3 -27 8 -47 24 -21 17 -41 30 -44 30 -3 0 1 -6
10 -13 73 -56 85 -72 88 -113 1 -6 13 -16 27 -23 l26 -12 -42 -30 c-35 -26
-44 -28 -58 -17 -9 7 -19 13 -21 15 -2 1 3 9 12 17 8 8 17 12 20 9 4 -3 5 4 2
16 -2 13 1 21 11 21 8 0 14 5 14 10 0 14 -11 12 -43 -8 -15 -10 -24 -22 -20
-25 3 -4 1 -7 -5 -7 -7 0 -12 9 -12 20 0 11 -17 35 -37 55 -38 35 -66 48 -43
20 10 -12 10 -15 -1 -15 -9 -1 -8 -4 4 -11 9 -6 15 -14 12 -19 -3 -5 -1 -11 5
-15 12 -7 13 -25 2 -25 -5 0 -27 16 -50 36 -59 50 -56 74 10 119 29 19 62 35
74 35 12 0 42 -16 66 -36z m1531 -3 c9 -12 17 -24 17 -27 0 -10 -42 24 -57 46
-15 21 -14 21 3 12 11 -6 27 -20 37 -31z m-734 15 c9 -11 9 -16 0 -21 -8 -6
-7 -10 2 -17 11 -8 10 -9 -3 -5 -22 7 -48 -23 -48 -56 0 -15 -4 -27 -10 -27
-5 0 -10 -11 -10 -25 0 -15 -9 -31 -25 -41 -14 -9 -25 -23 -25 -31 0 -13 3
-13 18 -2 15 13 16 12 3 -3 -7 -10 -21 -18 -30 -18 -9 0 -32 -13 -51 -30 -37
-31 -68 -38 -88 -18 -20 20 -13 47 16 62 16 8 35 22 42 31 8 9 35 27 62 41 51
26 64 50 56 104 -2 16 -2 28 1 27 3 -1 16 8 29 21 25 25 45 28 61 8z m908 -30
c-8 -12 -23 -22 -33 -23 -15 -2 -14 0 4 9 18 9 22 17 17 37 -6 21 -4 23 10 11
13 -11 14 -16 2 -34z m-72 9 c0 -26 -10 -34 -18 -12 -5 14 2 37 12 37 3 0 6
-11 6 -25z m235 -32 c-8 -3 -18 -11 -22 -17 -5 -8 -8 -7 -8 1 0 8 -11 11 -32
8 -29 -4 -30 -4 -8 4 27 10 95 13 70 4z m-230 -61 c0 -9 -44 25 -48 37 -2 7 7
3 22 -10 14 -12 26 -25 26 -27z m120 38 c-13 -9 -13 -11 0 -20 8 -5 10 -10 5
-10 -13 0 -35 20 -35 32 0 4 10 8 23 8 18 0 19 -2 7 -10z m-1641 -44 c31 -31
42 -50 39 -64 -4 -15 -1 -18 13 -15 20 6 78 -34 78 -54 1 -14 -37 -43 -56 -43
-20 0 -15 18 7 25 11 3 20 11 20 16 0 6 -9 7 -21 4 -18 -6 -20 -4 -14 14 9 29
-7 26 -41 -9 -16 -16 -37 -30 -46 -30 -24 0 -22 -16 4 -34 20 -14 24 -14 40 1
22 19 37 9 22 -15 -17 -27 -48 -25 -83 3 -25 22 -29 30 -21 46 6 10 23 22 38
25 26 7 42 20 42 37 0 4 -20 -6 -44 -23 -49 -33 -82 -38 -112 -15 -18 15 -17
16 14 10 26 -5 42 0 82 25 28 18 50 36 50 42 0 5 -18 26 -40 45 -35 32 -44 53
-21 53 4 0 26 -20 50 -44z m781 29 c11 -13 8 -21 -15 -45 -16 -17 -30 -36 -31
-43 -8 -55 -27 -95 -49 -107 -29 -16 -32 -27 -7 -33 15 -3 15 -5 -3 -11 -36
-14 -80 -39 -103 -60 -25 -22 -45 -17 -66 18 -11 18 -11 18 79 89 17 13 45 29
63 36 36 15 48 43 39 97 -3 19 -2 32 2 30 5 -3 19 6 31 19 27 29 42 31 60 10z
m901 -15 c-18 -17 -38 -30 -44 -30 -10 0 63 59 73 60 3 0 -10 -14 -29 -30z
m654 0 c4 -6 11 -8 16 -5 5 4 9 2 9 -4 0 -13 -59 -61 -76 -61 -19 0 -18 -14 5
-34 10 -9 25 -14 35 -10 9 3 27 -1 41 -10 20 -13 23 -13 19 -2 -7 17 65 41 79
27 10 -10 -53 -61 -76 -61 -25 0 -21 -15 9 -35 18 -12 29 -13 38 -6 12 11 26
5 26 -10 0 -6 -53 -29 -68 -29 -2 0 -1 7 2 16 4 11 1 14 -14 12 -12 -2 -28 9
-43 30 -13 18 -43 46 -66 62 -42 31 -66 72 -56 97 2 8 9 11 15 8 6 -4 8 -10 5
-15 -3 -4 11 -3 31 3 20 6 38 17 41 24 6 16 19 17 28 3z m-496 -17 c0 -10
-120 -96 -125 -90 -3 2 20 21 51 42 30 21 55 42 55 47 0 4 5 8 10 8 6 0 10 -3
9 -7z m-253 -45 l19 -23 -25 20 c-14 11 -27 21 -29 22 -2 2 0 3 6 3 5 0 18
-10 29 -22z m-706 -8 c27 -14 14 -44 -30 -69 -30 -17 -38 -27 -37 -49 1 -15 6
-30 10 -33 5 -3 -3 -19 -16 -35 -22 -25 -27 -27 -41 -14 -16 12 -16 11 -5 -13
7 -15 16 -24 20 -21 5 3 9 0 9 -6 0 -7 -6 -10 -14 -7 -8 3 -38 -12 -67 -34
-60 -44 -69 -46 -93 -20 -14 15 -15 24 -6 40 6 12 14 21 18 21 4 0 31 18 61
40 29 22 59 40 65 40 34 0 68 93 39 104 -7 3 -13 10 -13 15 0 6 6 8 13 5 7 -2
23 7 35 21 25 28 26 29 52 15z m-1050 -16 c0 -9 -5 -14 -12 -12 -18 6 -21 28
-4 28 9 0 16 -7 16 -16z m-250 -32 c24 -21 41 -44 39 -51 -3 -9 -20 0 -53 28
-26 22 -50 41 -53 41 -4 0 -28 -14 -55 -31 -31 -20 -48 -38 -48 -51 0 -22 -24
-20 -27 3 -4 19 5 29 56 67 59 42 88 41 141 -6z m2080 -20 c0 -3 -11 5 -25 18
-14 13 -25 28 -25 34 0 6 11 -2 25 -18 14 -16 25 -31 25 -34z m191 28 c-24
-11 -48 -20 -55 -20 -16 1 66 38 84 39 8 0 -5 -8 -29 -19z m54 -7 c-9 -16 -30
-44 -46 -63 -27 -32 -28 -33 -18 -7 7 15 15 27 19 27 4 0 15 16 26 35 10 19
22 35 27 35 4 0 1 -12 -8 -27z m-2285 -97 c0 -6 -14 -19 -30 -28 -17 -9 -30
-24 -30 -33 0 -20 6 -19 29 4 19 19 67 19 55 0 -3 -5 -2 -9 3 -8 24 4 35 -2
29 -17 -6 -15 -4 -15 11 -3 10 7 20 15 22 16 3 2 -15 24 -39 48 -34 34 -40 45
-26 45 26 0 98 -74 90 -94 -8 -21 -108 -86 -132 -86 -29 0 -116 70 -103 83 7
7 15 6 26 -3 8 -7 15 -11 16 -9 8 40 6 45 -61 103 -25 22 -34 25 -41 15 -4 -7
-11 -11 -14 -7 -8 8 30 46 63 64 23 12 28 10 78 -34 30 -25 54 -51 54 -56z
m2157 78 c-3 -3 -12 -4 -19 -1 -8 3 -5 6 6 6 11 1 17 -2 13 -5z m-787 -29 c11
-13 8 -21 -19 -49 -17 -18 -28 -35 -24 -39 6 -7 0 -22 -31 -87 -8 -15 -20 -25
-33 -24 -18 0 -20 -3 -12 -23 6 -17 5 -23 -5 -23 -8 0 -33 -16 -56 -35 -23
-19 -50 -35 -59 -35 -22 0 -41 19 -41 41 0 21 108 102 127 95 8 -3 11 -2 8 4
-3 5 15 18 40 30 47 21 56 36 29 47 -8 3 -13 12 -9 21 3 8 -3 24 -12 35 -17
19 -17 20 -1 14 12 -4 27 2 42 18 29 29 39 31 56 10z m753 -30 c27 -25 45 -45
40 -45 -4 1 -30 21 -58 45 -27 25 -45 45 -40 45 6 -1 32 -21 58 -45z m-893 19
c0 -8 -4 -12 -10 -9 -5 3 -10 10 -10 16 0 5 5 9 10 9 6 0 10 -7 10 -16z m-624
-23 l33 -30 -27 -6 c-15 -3 -38 -14 -52 -25 l-25 -20 27 0 c16 0 33 8 39 18
11 18 14 18 66 -3 61 -25 86 -45 66 -52 -7 -3 -23 -13 -35 -23 -22 -18 -24
-18 -45 2 -17 16 -23 18 -23 7 -1 -11 -3 -11 -13 2 -11 14 -49 39 -61 39 -2 0
9 -13 25 -29 30 -30 36 -46 20 -55 -10 -7 -143 113 -139 125 3 7 95 75 107 78
2 1 18 -12 37 -28z m494 -1 c0 -5 -5 -10 -11 -10 -5 0 -7 5 -4 10 3 6 8 10 11
10 2 0 4 -4 4 -10z m1945 -20 c25 0 70 -38 79 -67 4 -11 13 -27 21 -33 12 -10
15 -9 15 4 0 25 17 19 24 -8 6 -24 -30 -161 -69 -261 -6 -16 -2 -14 23 9 30
28 31 28 25 5 -6 -23 -5 -23 23 6 16 17 26 32 22 33 -5 2 -8 15 -8 29 0 22 2
24 16 12 13 -10 15 -27 10 -83 -3 -39 -5 -74 -6 -78 0 -3 -12 -21 -27 -40 -24
-28 -24 -30 -4 -13 57 48 70 176 26 254 -31 54 -25 64 15 26 59 -56 73 -142
35 -215 -20 -38 -77 -91 -92 -85 -8 2 -138 -87 -291 -198 -152 -112 -297 -217
-322 -235 -54 -38 -135 -56 -232 -50 -41 2 -64 0 -59 -5 5 -5 44 -10 85 -11
83 -1 99 -10 37 -21 -98 -16 -221 28 -275 98 -46 60 -52 188 -10 204 8 3 21
17 28 31 l13 25 1 -29 c2 -85 13 -114 54 -144 17 -12 28 -18 24 -11 -4 6 -2
11 5 11 8 0 7 5 -2 17 -12 14 -10 14 14 -2 34 -22 43 -13 42 45 0 23 4 39 10
37 10 -4 12 -28 4 -57 -2 -8 2 -14 9 -13 6 2 12 -4 12 -12 0 -8 -7 -15 -15
-15 -23 0 -18 -16 10 -28 14 -6 25 -16 25 -22 0 -15 46 -12 60 5 9 11 7 21
-14 48 -14 18 -29 47 -32 64 -6 30 -5 30 45 37 29 4 49 11 46 16 -8 12 -42 13
-49 2 -3 -5 -27 -9 -53 -10 -56 -1 -98 22 -137 73 -26 33 -24 49 2 23 6 -6 3
6 -8 28 -11 21 -18 44 -15 51 2 7 2 13 -1 13 -2 0 -9 -10 -14 -22 l-9 -23 0
22 c-1 12 3 25 9 28 5 3 17 22 26 41 15 32 124 134 142 134 4 0 18 10 32 23
14 13 50 40 80 60 30 20 60 41 66 46 5 4 21 14 35 21 13 7 53 35 89 61 78 56
165 108 188 112 9 2 29 11 44 21 19 12 41 17 68 14 45 -4 48 -1 23 18 -14 10
-9 10 22 -1 22 -8 49 -14 60 -15z m-3210 -14 c17 -13 27 -27 23 -31 -3 -3 -21
7 -40 24 -39 36 -26 41 17 7z m1655 -37 c0 -3 -14 -18 -30 -34 -17 -16 -28
-35 -26 -42 8 -21 -21 -79 -53 -106 -21 -18 -26 -28 -19 -35 8 -8 4 -14 -16
-22 -15 -5 -42 -21 -60 -35 -35 -26 -90 -33 -102 -13 -4 6 -2 14 4 16 7 2 12
10 12 17 0 14 47 48 67 48 7 0 10 4 7 9 -7 11 15 29 74 59 38 20 42 26 42 59
0 20 -5 41 -12 48 -9 9 -8 12 5 12 9 0 27 11 41 25 22 22 28 24 46 13 11 -7
20 -15 20 -19z m-690 2 c0 -11 -26 -22 -34 -14 -12 12 -5 23 14 23 11 0 20 -4
20 -9z m-1128 -58 c37 -37 42 -57 10 -46 -11 3 -9 0 6 -11 30 -23 28 -33 -10
-67 -36 -32 -48 -36 -48 -16 0 7 -16 28 -35 47 -19 19 -35 29 -35 22 0 -7 4
-12 9 -12 5 0 11 -7 15 -15 8 -21 0 -19 -24 7 -26 29 -26 63 2 82 30 22 47 20
77 -6 l26 -23 -24 28 c-14 15 -34 27 -46 27 -23 0 -105 -54 -105 -69 0 -5 18
-25 40 -45 40 -36 47 -46 32 -46 -19 0 -92 73 -92 91 0 40 95 104 140 93 14
-3 42 -22 62 -41z m496 -11 c3 -28 6 -31 18 -21 28 23 29 -3 1 -27 -35 -30
-51 -22 -44 22 7 43 -10 54 -34 23 -19 -24 -19 -24 -19 -2 0 25 26 44 55 40
15 -1 21 -11 23 -35z m1415 -10 c16 -17 15 -20 -13 -47 -17 -16 -30 -39 -30
-51 0 -13 -4 -26 -10 -29 -5 -3 -10 -14 -10 -24 0 -10 -14 -30 -32 -46 -28
-26 -30 -29 -13 -35 12 -4 15 -9 8 -13 -6 -4 -18 -5 -25 -2 -8 3 -34 -12 -59
-35 -32 -29 -53 -40 -76 -40 -32 0 -57 20 -35 28 7 2 12 11 12 21 0 9 12 24
28 33 15 9 41 28 57 42 32 28 45 32 45 16 0 -5 18 7 39 28 29 28 37 41 30 53
-4 9 -5 19 -2 23 3 3 -2 15 -12 26 -18 19 -17 20 2 20 11 0 30 11 43 25 28 30
32 30 53 7z m-1235 -64 l-40 -41 -26 26 -26 26 29 25 c35 30 64 37 86 18 15
-12 13 -17 -23 -54z m-273 52 c3 -5 -1 -10 -9 -10 -26 0 -29 -21 -8 -43 21
-20 22 -20 42 -2 22 20 34 16 24 -9 -9 -25 -50 -31 -80 -12 -37 25 -41 46 -15
68 26 20 37 22 46 8z m710 0 c3 -6 -1 -7 -9 -4 -18 7 -21 14 -7 14 6 0 13 -4
16 -10z m-1255 -30 c0 -5 -2 -10 -4 -10 -3 0 -8 5 -11 10 -3 6 -1 10 4 10 6 0
11 -4 11 -10z m254 -39 c23 -23 37 -46 34 -57 -2 -11 -29 -36 -61 -58 -52 -34
-60 -37 -86 -26 -36 15 -96 76 -83 84 6 3 14 2 17 -4 4 -6 16 -8 26 -5 11 4
26 2 34 -5 11 -9 12 -7 8 9 -4 15 1 22 20 26 28 8 51 -1 42 -16 -3 -5 2 -6 11
-2 14 5 16 2 11 -17 l-6 -23 22 21 21 22 -37 38 c-20 21 -37 41 -37 45 0 18
29 3 64 -32z m733 -27 c1 -5 -13 -19 -33 -32 -34 -22 -37 -23 -55 -6 -10 9
-19 14 -19 10 0 -4 -12 2 -27 14 -20 16 -28 18 -35 8 -5 -9 -8 -7 -8 7 0 11
12 29 26 41 l25 22 62 -27 c33 -15 62 -31 64 -37z m277 50 c5 -14 4 -15 -9 -4
-17 14 -19 20 -6 20 5 0 12 -7 15 -16z m896 -39 c6 -8 9 -18 6 -24 -3 -5 -3
-11 1 -14 5 -2 3 -3 -4 -1 -13 3 -47 -32 -49 -49 -3 -42 -21 -81 -45 -102 -34
-28 -35 -32 -11 -38 12 -3 8 -6 -13 -12 -16 -4 -50 -23 -74 -41 -45 -35 -93
-44 -107 -22 -4 6 -2 14 4 16 7 2 10 7 7 12 -7 11 87 89 144 120 39 21 47 30
49 58 2 22 -3 41 -15 55 -18 20 -17 20 4 15 15 -4 29 2 44 18 26 28 42 30 59
9z m-955 -24 c-6 -5 -25 10 -25 20 0 5 6 4 14 -3 8 -7 12 -15 11 -17z m-1354
-14 c23 -16 29 -29 29 -58 0 -33 -5 -40 -50 -69 -68 -44 -87 -32 -22 14 28 21
52 44 52 51 0 12 -67 75 -80 75 -3 0 -20 -9 -39 -21 -35 -21 -37 -38 -2 -19
12 6 27 8 33 4 7 -5 3 -10 -12 -16 -18 -7 -21 -11 -12 -20 9 -9 15 -9 24 0 15
15 32 16 23 2 -3 -5 3 -10 14 -10 12 0 21 -3 21 -6 0 -13 -76 -73 -87 -69 -14
5 -83 -32 -83 -44 0 -19 15 -19 40 -1 29 21 50 26 50 13 0 -8 -41 -38 -101
-77 -27 -17 -27 -17 -88 34 -34 28 -61 56 -61 63 0 7 24 28 52 47 28 19 86 58
127 87 84 58 116 62 172 20z m3803 -16 c-4 -17 -9 -30 -11 -27 -3 2 -2 19 2
36 9 41 17 33 9 -9z m-2334 14 c7 -9 8 -15 2 -15 -5 0 -12 7 -16 15 -3 8 -4
15 -2 15 2 0 9 -7 16 -15z m-671 -55 c23 -22 50 -40 59 -40 10 0 27 -7 39 -15
l22 -16 -37 -33 c-36 -33 -36 -34 -47 -12 -6 11 -18 20 -27 18 -8 -1 -21 5
-28 13 -16 19 -25 19 -45 -1 -15 -15 -17 -15 -30 2 -12 17 -11 20 7 27 11 4
24 5 29 2 11 -7 49 13 49 26 0 5 -11 2 -25 -7 -14 -9 -25 -12 -25 -6 0 6 9 16
20 22 11 6 18 16 14 21 -3 6 -18 -4 -34 -22 -27 -33 -27 -33 -54 -16 -24 16
-25 19 -12 33 15 15 66 44 77 44 3 0 25 -18 48 -40z m452 23 c13 -16 12 -17
-3 -4 -10 7 -18 15 -18 17 0 8 8 3 21 -13z m228 -9 c14 -12 -19 -1 -35 12 -18
14 -18 14 6 3 14 -6 27 -13 29 -15z m-965 -38 c15 -5 16 -9 6 -21 -18 -21 -37
-19 -43 6 -3 11 -15 23 -26 26 -12 3 -21 11 -21 17 0 25 14 26 39 3 14 -13 34
-27 45 -31z m701 44 c-4 -6 -1 -19 6 -28 10 -13 8 -12 -9 2 -17 15 -19 22 -10
28 17 10 20 10 13 -2z m1203 -12 c8 -8 4 -20 -17 -47 -28 -37 -55 -129 -45
-155 6 -16 -150 -135 -178 -136 -25 0 -66 21 -72 37 -3 8 -2 22 3 32 10 18 81
71 95 71 4 0 23 12 42 26 31 24 48 22 23 -3 -8 -8 -7 -13 2 -18 7 -5 10 -4 6
2 -4 5 7 23 23 38 33 32 40 75 15 95 -17 14 -11 32 8 24 7 -2 24 7 37 21 26
28 40 31 58 13z m-668 -39 c0 -5 -13 -15 -30 -24 -34 -18 -36 -15 -15 24 8 16
11 32 7 37 -4 5 3 0 16 -10 12 -11 22 -23 22 -27z m-1330 11 c0 -5 -9 -10 -19
-10 -31 0 -33 -15 -5 -41 l25 -24 19 25 c19 25 20 25 20 3 0 -36 -35 -48 -73
-26 -38 22 -46 51 -21 70 21 15 54 17 54 3z m664 -16 c3 -8 2 -12 -4 -9 -6 3
-10 10 -10 16 0 14 7 11 14 -7z m236 -7 c11 -5 9 -6 -4 -4 -11 1 -21 9 -23 17
-3 10 -2 11 4 4 4 -6 15 -14 23 -17z m90 13 c0 -5 -4 -10 -10 -10 -5 0 -10 5
-10 10 0 6 5 10 10 10 6 0 10 -4 10 -10z m-260 -34 c0 -7 -3 -6 -8 2 -5 8 -16
10 -27 5 -17 -6 -18 -5 -5 9 16 17 40 7 40 -16z m-901 -31 l23 -25 -32 0 c-27
0 -30 -3 -25 -20 9 -28 -9 -25 -48 10 l-34 29 -22 -22 c-26 -29 -27 -40 -2
-32 15 4 19 0 19 -20 0 -33 -18 -32 -52 4 l-28 29 26 16 c14 9 38 24 52 34 71
47 77 47 123 -3z m1116 25 c-3 -5 -12 -10 -18 -10 -7 0 -6 4 3 10 19 12 23 12
15 0z m-275 -32 c0 -12 -6 -9 -26 13 -19 22 -19 22 4 8 12 -8 22 -17 22 -21z
m1431 16 c16 -14 15 -17 -12 -46 -15 -17 -26 -34 -24 -38 2 -4 -2 -17 -9 -31
-7 -13 -11 -30 -9 -36 2 -6 -12 -24 -31 -40 -39 -30 -45 -43 -20 -43 8 0 12
-4 9 -10 -3 -5 -16 -10 -28 -10 -12 0 -42 -16 -66 -35 -48 -39 -111 -49 -111
-19 0 22 125 135 183 163 15 8 28 19 28 25 1 6 2 18 3 26 1 8 -7 25 -18 38
l-19 22 25 0 c13 0 35 11 48 25 28 29 28 30 51 9z m-1258 -43 c-2 -3 -16 8
-31 24 l-27 28 31 -24 c17 -13 30 -26 27 -28z m-482 -136 c192 -178 189 -174
189 -184 0 -8 -176 -131 -188 -131 -12 0 -77 69 -71 75 3 3 16 -6 29 -20 27
-29 52 -32 71 -8 13 15 11 16 -16 11 -22 -5 -37 0 -58 18 -16 13 -36 24 -45
24 -12 0 -10 5 8 17 45 31 54 57 16 47 -25 -6 -66 10 -66 26 0 5 26 27 59 49
l58 40 23 -24 c20 -22 21 -25 6 -31 -35 -13 -1 -74 42 -74 25 0 46 -16 38 -29
-4 -6 -13 -11 -21 -11 -8 0 -11 -7 -8 -19 5 -18 8 -17 50 12 l44 32 -33 29
c-18 16 -87 79 -153 140 -162 150 -150 142 -180 122 -13 -9 -31 -16 -38 -16
-8 0 -34 -21 -57 -46 -31 -33 -45 -43 -53 -35 -14 14 -4 25 93 90 41 29 80 50
87 49 6 -2 85 -70 174 -153z m419 123 c0 -12 -6 -9 -26 13 -19 22 -19 22 4 8
12 -8 22 -17 22 -21z m393 -15 c12 -14 30 -35 40 -45 9 -10 17 -22 17 -26 0
-15 48 -54 59 -48 6 4 9 1 6 -6 -3 -7 -65 -53 -137 -103 -72 -49 -142 -100
-155 -113 l-25 -23 -15 21 c-8 11 -19 18 -24 14 -12 -7 -49 24 -49 41 0 7 -7
18 -15 25 -9 7 -14 15 -11 17 2 2 25 -16 52 -41 27 -25 52 -46 56 -46 5 0 -21
36 -58 81 -36 44 -64 82 -62 85 20 19 276 193 286 194 6 0 22 -12 35 -27z
m-1513 -28 l24 -26 -29 -24 c-17 -13 -33 -24 -36 -25 -3 0 -18 13 -34 30 -33
34 -26 54 8 22 19 -18 24 -19 40 -7 18 13 18 14 -2 27 -12 7 -21 16 -21 20 0
17 28 7 50 -17z m108 13 c-3 -7 -15 -15 -28 -16 -21 -3 -22 -2 -11 12 16 19
44 21 39 4z m648 -45 c30 -32 69 -77 87 -100 18 -22 55 -55 82 -71 28 -17 59
-40 69 -51 23 -25 43 -26 76 -4 22 14 22 13 -4 -15 -17 -18 -37 -32 -47 -32
-14 0 -205 167 -328 285 -22 21 -22 45 0 45 5 0 34 -26 65 -57z m1804 31 c0
-2 -11 -22 -24 -43 -14 -21 -23 -41 -20 -44 10 -9 -34 -82 -69 -114 -25 -23
-34 -39 -30 -53 5 -21 -11 -28 -22 -10 -4 6 -11 8 -16 4 -5 -3 -7 -10 -3 -15
3 -5 2 -8 -3 -7 -4 1 -20 -6 -35 -16 -36 -24 -78 -15 -78 17 1 24 83 92 100
82 5 -3 8 0 5 7 -3 8 13 23 42 38 41 21 48 30 51 58 2 22 -3 41 -15 55 -18 20
-17 20 4 15 15 -4 29 3 49 23 21 22 31 26 45 18 11 -5 19 -12 19 -15z m-2046
0 c8 -21 -4 -40 -14 -24 -4 7 -15 10 -24 7 -15 -6 -14 -9 4 -27 27 -27 37 -25
55 10 9 17 22 30 29 30 19 0 42 -30 30 -38 -6 -4 -31 -22 -56 -39 -51 -36 -76
-41 -84 -18 -6 14 -8 14 -18 0 -10 -14 -14 -13 -35 9 l-23 24 28 16 c16 8 42
26 58 40 34 30 42 32 50 10z m2176 -11 c0 -10 -70 -56 -76 -50 -3 3 66 57 73
57 2 0 3 -3 3 -7z m-2059 -63 c10 -6 19 -17 19 -25 0 -19 -14 -19 -30 0 -10
12 -16 13 -26 4 -12 -10 -12 -14 2 -24 22 -15 10 -35 -21 -35 -24 0 -61 28
-50 38 3 3 11 0 17 -6 19 -19 30 -14 23 8 -12 39 25 61 66 40z m2078 -67 c1
-7 -4 -13 -10 -13 -6 0 -9 7 -5 15 8 22 0 19 -50 -17 l-45 -32 -31 32 c-36 36
-32 52 6 27 25 -17 27 -16 74 14 l47 31 7 -23 c3 -12 6 -28 7 -34z m-1784 27
c10 -11 16 -20 13 -20 -3 0 -13 9 -23 20 -10 11 -16 20 -13 20 3 0 13 -9 23
-20z m1026 3 c13 -16 12 -17 -3 -4 -10 7 -18 15 -18 17 0 8 8 3 21 -13z
m-1426 -99 c26 -25 44 -48 41 -51 -6 -6 -103 77 -105 90 -2 17 20 4 64 -39z
m-175 -16 c0 -6 -6 -5 -15 2 -8 7 -15 14 -15 16 0 2 7 1 15 -2 8 -4 15 -11 15
-16z m651 -5 c13 -16 12 -17 -3 -4 -17 13 -22 21 -14 21 2 0 10 -8 17 -17z
m697 -16 c36 -38 5 -51 -37 -16 -21 17 -22 22 -10 30 20 13 23 12 47 -14z m87
3 c3 -5 -4 -19 -16 -31 -21 -21 -21 -22 -3 -32 34 -20 84 -16 53 4 -11 7 -10
9 4 9 26 0 34 -30 11 -47 -19 -14 -19 -14 0 -29 16 -11 17 -17 8 -26 -22 -22
-48 4 -44 43 3 29 2 31 -12 20 -26 -22 -54 -5 -54 34 0 19 5 35 10 35 6 0 8 7
4 15 -6 17 29 22 39 5z m-581 -84 c19 -6 19 -8 2 -24 -16 -16 -18 -15 -37 11
-12 15 -27 27 -35 27 -8 0 -14 6 -14 13 0 26 14 27 39 4 14 -13 35 -27 45 -31z
m-72 -3 c33 -32 35 -44 9 -67 -13 -12 -27 -16 -43 -11 -25 8 -68 43 -68 57 0
16 24 8 51 -18 27 -26 49 -26 49 0 0 8 -11 21 -25 30 -14 9 -23 21 -20 26 9
15 16 12 47 -17z m539 -80 c67 -60 127 -112 134 -117 9 -7 26 0 54 21 39 29
40 31 22 47 -26 23 -25 73 1 79 11 3 17 10 13 16 -3 6 -2 11 4 11 22 0 23 -24
3 -41 l-22 -17 28 -24 c40 -33 38 -59 -6 -86 -20 -12 -55 -34 -76 -48 -28 -19
-37 -22 -33 -10 10 26 -4 19 -36 -19 -33 -40 -39 -41 -61 -19 -21 20 -20 27 5
42 17 11 20 11 13 0 -4 -7 2 -5 14 6 16 14 19 23 12 36 -7 13 -6 20 2 22 6 2
8 10 4 16 -4 7 -15 10 -25 7 -11 -3 -26 5 -42 22 -13 14 -18 23 -11 19 14 -8
17 10 3 18 -17 11 -41 -6 -41 -27 0 -23 -37 -67 -56 -67 -7 0 -18 8 -23 18
-11 21 11 62 33 62 8 0 19 7 26 15 10 12 9 16 -4 21 -9 3 -16 10 -16 15 0 4 8
5 18 2 15 -6 15 -5 4 10 -8 8 -20 13 -28 10 -19 -7 -58 33 -50 53 3 7 8 14 11
14 3 0 60 -48 126 -107z m-780 80 c8 -9 26 -24 42 -33 24 -15 26 -19 12 -30
-13 -11 -19 -8 -40 14 -13 14 -29 26 -35 26 -5 0 -10 9 -10 20 0 24 13 26 31
3z m824 -3 c0 -8 -10 -16 -23 -18 -12 -2 -20 -8 -17 -13 10 -15 -12 -10 -25 6
-10 12 -9 16 4 21 9 3 23 4 31 0 18 -7 20 10 3 18 -7 3 -4 5 7 3 11 -1 20 -9
20 -17z m-875 -18 c0 -4 -9 -13 -20 -20 -23 -14 -18 -35 5 -25 9 3 15 -1 15
-10 0 -9 3 -22 6 -31 10 -27 -20 -18 -52 15 l-29 31 28 24 c28 24 47 31 47 16z
m919 -28 c-6 -8 -17 -14 -24 -14 -8 0 -16 -6 -18 -12 -4 -10 -8 -9 -16 2 -17
24 -13 30 22 31 17 1 24 3 14 6 -9 2 -15 9 -12 14 4 5 14 5 26 -2 16 -8 18
-13 8 -25z m-189 -25 c0 -20 -44 -60 -64 -57 -35 5 -32 38 5 69 31 26 35 27
47 12 6 -9 12 -20 12 -24z m225 -5 c0 -14 -6 -18 -22 -17 -17 2 -21 -1 -16
-15 6 -15 5 -15 -10 -3 -26 20 -21 31 16 32 17 0 26 3 20 6 -7 2 -13 9 -13 15
0 5 6 8 13 6 6 -3 12 -13 12 -24z m181 -29 c9 -14 14 -28 10 -32 -3 -3 -6 -1
-6 6 0 8 -7 11 -15 7 -10 -4 -15 1 -15 14 0 14 -5 18 -17 13 -11 -4 -14 -3 -9
5 12 20 34 14 52 -13z m-262 -86 c13 -27 13 -29 -5 -29 -11 0 -30 -7 -43 -15
-27 -18 -56 -10 -56 15 0 22 58 70 76 63 8 -3 20 -18 28 -34z m-2349 1 c-3 -5
-11 -10 -16 -10 -6 0 -7 5 -4 10 3 6 11 10 16 10 6 0 7 -4 4 -10z m2861 -42
c56 -52 55 -70 -11 -120 -55 -42 -65 -45 -65 -23 0 8 3 15 8 15 4 0 25 16 47
34 l40 34 -40 36 c-38 34 -64 44 -78 30 -3 -3 6 -16 20 -28 l25 -22 -26 -24
c-14 -14 -26 -29 -26 -35 0 -5 -12 -18 -25 -28 -22 -15 -25 -16 -25 -2 0 22
-16 19 -34 -7 -20 -28 -20 -42 -1 -34 44 18 47 16 15 -12 -45 -40 -31 -41 25
-2 51 35 71 23 23 -13 -90 -66 -103 -67 -172 -7 -51 45 -48 72 13 113 26 17
81 56 121 85 40 28 84 52 97 52 14 0 42 -17 69 -42z m518 17 c18 -14 39 -25
46 -25 9 0 8 -6 -5 -20 -23 -25 -31 -25 -38 0 -3 11 -17 24 -31 30 -14 5 -26
16 -26 25 0 22 17 19 54 -10z m-56 -28 c2 -14 10 -31 18 -37 8 -7 14 -16 14
-21 0 -14 -26 -10 -40 5 -6 8 -23 16 -37 18 -15 2 -28 9 -31 16 -3 9 3 11 21
7 25 -7 46 8 27 20 -13 8 -2 27 13 22 7 -2 13 -15 15 -30z m-1033 -47 c10 -11
26 -22 36 -25 22 -7 25 -23 5 -31 -8 -3 -25 6 -39 20 -15 14 -31 26 -37 26 -5
0 -10 7 -10 15 0 21 24 19 45 -5z m535 -10 c0 -5 -2 -10 -4 -10 -3 0 -8 5 -11
10 -3 6 -1 10 4 10 6 0 11 -4 11 -10z m-579 -10 c23 -13 25 -43 4 -60 -8 -7
-12 -17 -9 -22 8 -13 -26 -37 -53 -38 -15 0 -23 -7 -25 -22 -3 -22 -5 -21 -43
15 l-40 37 24 20 c27 23 58 19 80 -11 7 -10 18 -19 24 -19 6 0 -1 13 -16 28
-33 34 -34 46 -5 66 26 19 33 19 59 6z m802 -88 c50 -49 48 -72 -9 -117 -46
-34 -74 -44 -74 -26 0 6 20 24 45 42 25 18 45 35 45 38 0 13 -76 81 -90 81
-28 0 -31 -12 -8 -32 19 -16 20 -21 7 -46 -7 -15 -15 -31 -18 -36 -2 -5 4 -6
13 -3 10 4 15 3 11 -3 -3 -6 -12 -10 -20 -10 -7 0 -15 -7 -19 -15 -3 -8 -11
-15 -18 -15 -7 0 -18 -11 -25 -25 l-11 -25 29 17 c29 17 47 14 34 -7 -13 -21
-98 -70 -122 -70 -33 0 -113 76 -113 106 0 19 14 33 58 61 31 20 82 55 112 78
30 23 62 45 70 48 27 11 65 -4 103 -41z m-48 -62 c3 -5 1 -10 -4 -10 -6 0 -11
5 -11 10 0 6 2 10 4 10 3 0 8 -4 11 -10z m-466 -32 c20 -20 28 -35 21 -42 -6
-6 -14 -5 -24 3 -8 7 -25 9 -40 5 -24 -6 -26 -4 -26 30 0 47 26 48 69 4z m-99
-28 c0 -5 -9 -10 -20 -10 -25 0 -26 -22 -1 -44 18 -17 20 -17 40 3 24 24 31
26 31 9 0 -18 -31 -48 -50 -48 -25 0 -70 39 -70 60 0 21 25 39 53 40 9 0 17
-4 17 -10z m-673 -112 c58 -58 63 -72 32 -89 -25 -13 -54 5 -32 19 9 6 -2 23
-37 57 -46 45 -54 65 -27 65 6 0 35 -23 64 -52z m913 26 c0 -3 -10 -14 -22
-25 -13 -10 -18 -18 -11 -19 6 0 15 5 18 10 10 16 41 11 60 -10 17 -19 17 -21
0 -40 -10 -11 -28 -20 -41 -20 -14 0 -25 -8 -29 -20 -11 -35 -44 -45 -73 -23
-44 33 -50 52 -23 74 28 23 51 25 51 4 0 -8 -8 -15 -18 -15 -28 0 -34 -11 -15
-32 21 -24 33 -23 64 6 14 13 35 27 47 30 24 8 28 21 11 31 -6 4 -21 -2 -33
-14 l-23 -21 -19 21 c-19 21 -19 21 9 45 27 23 47 31 47 18z m-3311 -27 c-2
-1 -13 -9 -24 -17 -19 -14 -19 -14 -6 3 7 9 18 17 24 17 6 0 8 -1 6 -3z m2431
-167 c0 -14 -262 -210 -281 -210 -4 0 -17 8 -30 19 -21 17 -22 20 -7 35 9 9
21 16 27 16 15 0 13 11 -4 34 -15 19 -15 19 -38 -2 -29 -27 -43 -28 -57 -2
-10 18 -3 25 67 69 43 27 86 56 95 65 26 23 101 60 117 57 8 -1 10 2 5 11 -5
7 18 -9 49 -36 31 -27 57 -52 57 -56z m-2670 -11 c0 -5 -4 -8 -9 -5 -5 3 -14
-1 -21 -9 -7 -8 -18 -15 -24 -15 -12 0 34 39 47 40 4 0 7 -5 7 -11z m2937 -35
c45 -34 43 -48 -7 -41 -39 5 -55 -5 -25 -17 18 -7 20 -26 2 -26 -16 0 -80 64
-71 72 3 4 22 4 42 1 l37 -6 -19 21 c-27 31 -1 28 41 -4z m-90 -50 c34 -26 42
-51 21 -72 -18 -18 -49 -14 -74 9 l-23 21 6 -22 c3 -12 12 -24 19 -27 21 -8 6
-23 -23 -23 -18 0 -24 -4 -19 -15 10 -26 -19 -16 -53 19 l-33 34 24 21 c16 15
30 20 47 16 18 -5 22 -3 18 9 -10 25 17 19 43 -9 26 -28 29 -29 50 -15 12 8 9
15 -20 45 -40 41 -31 46 17 9z m266 -79 c31 -30 57 -58 57 -63 0 -16 -122 -94
-132 -84 -6 6 9 22 41 46 28 20 51 40 51 45 0 9 -76 81 -86 81 -3 0 -14 -5
-25 -10 -19 -11 -19 -12 8 -59 2 -2 9 2 17 8 12 10 17 8 26 -8 13 -26 2 -38
-90 -103 -106 -74 -106 -74 -136 -38 -14 16 -31 30 -37 30 -6 0 4 -16 23 -35
19 -19 43 -35 54 -35 12 0 43 16 70 35 27 19 53 35 58 35 20 0 4 -22 -38 -55
-65 -49 -116 -49 -163 -1 -50 51 -42 80 38 134 35 23 89 62 120 86 31 25 63
45 71 45 8 0 41 -24 73 -54z m-793 15 c0 -5 -4 -10 -10 -10 -5 0 -10 5 -10 10
0 6 5 10 10 10 6 0 10 -4 10 -10z"/>
<path d="M8535 6900 c-19 -8 -19 -8 4 -17 13 -5 37 -7 55 -4 l31 6 -30 3 c-16
2 -32 7 -35 12 -3 4 -14 4 -25 0z"/>
<path d="M8500 6844 c0 -14 -4 -22 -10 -19 -5 3 -10 2 -10 -4 0 -5 -3 -17 -6
-25 -5 -12 -2 -15 10 -10 9 3 13 10 10 15 -3 5 2 9 11 9 9 0 13 -4 10 -10 -3
-5 -3 -10 2 -10 12 0 31 47 24 57 -3 5 -14 12 -23 16 -14 5 -18 1 -18 -19z"/>
<path d="M8580 6840 c-17 -5 -19 -8 -7 -9 21 -1 22 -9 0 -33 -9 -10 -13 -21
-9 -25 3 -4 13 3 21 14 12 18 22 21 50 16 27 -4 35 -2 35 10 0 18 -24 29 -47
20 -11 -4 -14 -3 -9 5 8 13 2 14 -34 2z"/>
<path d="M8440 6830 c0 -5 7 -7 15 -4 8 4 15 8 15 10 0 2 -7 4 -15 4 -8 0 -15
-4 -15 -10z"/>
<path d="M8377 6811 c-3 -12 -1 -21 3 -21 14 0 19 15 11 29 -6 9 -10 7 -14 -8z"/>
<path d="M8401 6776 c-7 -8 -8 -17 -3 -19 4 -3 13 3 20 14 14 22 0 26 -17 5z"/>
<path d="M8640 6779 c-12 -9 -12 -10 4 -5 11 4 23 1 28 -6 7 -10 9 -10 6 1 -6
20 -20 23 -38 10z"/>
<path d="M8600 6776 c0 -3 5 -17 11 -33 8 -23 7 -30 -7 -40 -15 -11 -15 -13
-3 -13 9 0 25 10 37 23 25 26 30 46 7 27 -12 -10 -15 -7 -21 14 -3 14 -10 26
-15 26 -5 0 -9 -2 -9 -4z"/>
<path d="M8380 6740 c0 -6 7 -10 15 -10 8 0 15 2 15 4 0 2 -7 6 -15 10 -8 3
-15 1 -15 -4z"/>
<path d="M8445 6720 l-30 -5 31 -13 c18 -8 45 -12 61 -10 l30 3 -31 15 c-18 9
-44 13 -61 10z"/>
<path d="M9067 5203 c-9 -9 12 -33 29 -33 19 0 18 26 -2 34 -19 7 -19 7 -27
-1z"/>
<path d="M9075 5130 c-22 -16 -107 -77 -190 -135 -82 -58 -150 -110 -150 -114
0 -11 133 -121 147 -121 5 0 47 26 91 58 45 31 98 68 118 82 146 102 229 164
229 171 0 4 -18 5 -40 2 -49 -7 -94 11 -108 43 -7 13 -18 24 -27 24 -8 0 -15
5 -15 10 0 16 -12 11 -55 -20z m66 -40 c8 -22 19 -31 45 -36 42 -8 45 -24 4
-24 -23 0 -30 -4 -30 -20 0 -27 -18 -25 -31 4 -6 13 -25 28 -41 32 -35 11 -37
30 -3 26 19 -3 25 1 25 16 0 17 8 32 17 32 2 0 9 -13 14 -30z m-91 -60 c0 -22
27 -40 60 -40 13 0 20 -5 17 -12 -2 -7 -16 -12 -31 -10 -22 2 -26 -1 -26 -23
0 -33 -22 -29 -30 5 -4 18 -16 27 -43 33 -46 11 -48 27 -3 27 29 0 33 3 29 20
-4 14 0 20 11 20 9 0 16 -8 16 -20z m-75 -67 c20 -4 53 -59 42 -69 -2 -3 -16
1 -30 7 -21 9 -30 9 -41 0 -22 -18 -36 -5 -36 33 0 38 8 49 29 40 9 -4 25 -9
36 -11z m-85 -58 c7 -8 10 -26 8 -40 -5 -25 5 -34 17 -15 8 13 35 13 35 0 0
-14 -72 -60 -83 -53 -5 3 -6 25 -3 48 5 32 3 44 -7 48 -17 6 -37 -11 -37 -30
0 -7 -4 -13 -9 -13 -19 0 -22 22 -7 45 19 29 66 34 86 10z"/>
<path d="M9197 5153 c-19 -19 21 -63 58 -63 32 0 32 4 -7 40 -35 31 -41 34
-51 23z"/>
<path d="M8950 5121 c0 -15 29 -33 41 -25 9 5 7 11 -6 21 -22 15 -35 17 -35 4z"/>
<path d="M8840 5041 c0 -13 29 -35 37 -28 7 8 -15 37 -28 37 -5 0 -9 -4 -9 -9z"/>
<path d="M9290 5010 c0 -14 26 -23 41 -15 8 6 7 10 -2 16 -19 12 -39 11 -39
-1z"/>
<path d="M8726 4961 c-8 -12 21 -34 34 -26 8 5 8 11 -1 21 -13 16 -25 18 -33
5z"/>
<path d="M9182 4943 c-10 -4 -10 -8 -1 -19 13 -15 39 -19 39 -5 0 14 -24 29
-38 24z"/>
<path d="M9066 4863 c-8 -9 14 -33 30 -33 8 0 14 3 14 8 0 11 -37 32 -44 25z"/>
<path d="M8569 4836 c16 -19 44 -21 39 -3 -3 6 -15 14 -28 15 -21 3 -22 2 -11
-12z"/>
<path d="M8461 4698 c-145 -104 -180 -133 -167 -140 11 -6 23 -4 38 6 45 32
88 14 88 -36 0 -26 2 -28 21 -18 39 21 34 -2 -9 -38 -36 -31 -54 -62 -37 -62
10 0 455 323 455 330 0 4 -17 6 -37 3 -49 -6 -90 10 -104 41 -6 13 -19 27 -28
30 -9 3 -20 8 -26 10 -5 2 -93 -54 -194 -126z m206 53 c8 -21 18 -30 39 -33
40 -4 44 -28 4 -28 -27 0 -30 -3 -25 -20 10 -31 -21 -25 -37 7 -8 16 -25 30
-42 35 -36 9 -39 7 -30 -26 4 -19 14 -27 40 -32 40 -7 40 -31 1 -26 -23 3 -27
0 -25 -19 4 -32 -20 -35 -28 -4 -6 24 -38 45 -67 45 -16 -1 -71 -49 -64 -57 3
-3 13 2 22 11 31 31 95 10 95 -31 0 -22 -38 -47 -64 -41 -24 4 -21 22 4 28 27
6 31 24 6 28 -10 2 -23 -3 -28 -12 -13 -22 -31 -20 -57 8 l-22 24 29 21 c17
11 37 21 45 21 8 0 17 7 21 15 4 10 14 13 36 9 26 -6 29 -4 24 10 -10 26 31
59 62 52 21 -6 24 -3 24 19 0 34 23 32 37 -4z"/>
<path d="M8730 4811 c0 -25 37 -51 70 -51 24 1 24 2 -14 35 -45 40 -56 43 -56
16z"/>
<path d="M8952 4783 c-10 -4 -10 -8 -1 -19 13 -15 39 -19 39 -5 0 14 -24 29
-38 24z"/>
<path d="M8454 4769 c-6 -10 12 -28 28 -29 16 0 15 17 -2 28 -14 8 -21 8 -26
1z"/>
<path d="M8342 4683 c2 -10 11 -19 21 -21 24 -5 21 15 -4 28 -18 10 -20 9 -17
-7z"/>
<path d="M8790 4662 c0 -15 22 -30 36 -25 11 4 12 9 3 19 -12 15 -39 19 -39 6z"/>
<path d="M8677 4584 c-9 -10 12 -34 30 -34 19 0 12 34 -8 38 -8 1 -18 0 -22
-4z"/>
<path d="M8350 4540 c-9 -18 -8 -25 6 -41 22 -24 37 -12 32 27 -4 35 -23 42
-38 14z"/>
<path d="M8560 4501 c0 -15 28 -33 40 -26 8 5 8 11 -1 21 -13 15 -39 19 -39 5z"/>
<path d="M8447 4423 c-9 -9 12 -33 29 -33 19 0 18 26 -2 34 -19 7 -19 7 -27
-1z"/>
<path d="M7229 3987 c-14 -12 -47 -37 -72 -54 -26 -18 -47 -38 -47 -44 0 -6
17 2 38 18 20 16 49 37 64 46 15 9 32 26 38 37 13 25 11 25 -21 -3z"/>
<path d="M7460 3670 c0 -5 5 -10 11 -10 5 0 7 5 4 10 -3 6 -8 10 -11 10 -2 0
-4 -4 -4 -10z"/>
<path d="M6620 3297 c0 -19 124 -120 129 -105 4 12 -106 118 -121 118 -5 0 -8
-6 -8 -13z"/>
<path d="M5622 4909 c18 -7 33 -7 45 0 14 8 9 10 -27 10 -42 -1 -43 -1 -18
-10z"/>
<path d="M5766 4875 c-9 -10 -23 -15 -31 -12 -7 3 -15 1 -17 -5 -6 -16 14 -56
30 -63 10 -3 10 0 1 16 -9 18 -8 20 8 17 10 -2 17 -10 16 -16 -2 -7 2 -12 8
-12 6 0 8 9 4 20 -4 12 -2 20 5 20 6 0 8 -4 5 -10 -3 -5 -1 -10 5 -10 6 0 8
-11 4 -27 -4 -22 -3 -25 5 -13 16 22 13 46 -8 80 -17 29 -20 30 -35 15z"/>
<path d="M5606 4821 c-5 -7 -3 -18 3 -24 14 -14 20 -6 11 17 -5 15 -9 16 -14
7z"/>
<path d="M5575 4760 c-3 -5 -1 -10 4 -10 6 0 11 5 11 10 0 6 -2 10 -4 10 -3 0
-8 -4 -11 -10z"/>
<path d="M4716 4045 c4 -8 10 -12 15 -9 11 6 2 24 -11 24 -5 0 -7 -7 -4 -15z"/>
<path d="M4885 3996 c-18 -13 -18 -14 8 -9 15 3 24 9 21 14 -7 12 -7 12 -29
-5z"/>
<path d="M3058 3432 c-15 -10 -30 -23 -33 -29 -8 -22 10 -14 40 17 32 34 31
35 -7 12z"/>
<path d="M6055 3030 c-3 -5 -1 -10 4 -10 6 0 11 5 11 10 0 6 -2 10 -4 10 -3 0
-8 -4 -11 -10z"/>
<path d="M5966 2975 c-16 -12 -17 -15 -4 -15 9 0 18 7 22 15 7 18 6 18 -18 0z"/>
<path d="M5715 2820 c3 -5 8 -10 11 -10 2 0 4 5 4 10 0 6 -5 10 -11 10 -5 0
-7 -4 -4 -10z"/>
<path d="M5819 2793 c-13 -16 -12 -17 4 -4 16 13 21 21 13 21 -2 0 -10 -8 -17
-17z"/>
<path d="M5769 2763 c-13 -16 -12 -17 4 -4 16 13 21 21 13 21 -2 0 -10 -8 -17
-17z"/>
<path d="M5895 2771 c-7 -12 12 -24 25 -16 11 7 4 25 -10 25 -5 0 -11 -4 -15
-9z"/>
<path d="M5638 2672 c-31 -19 -39 -39 -10 -23 16 9 51 42 41 40 -2 0 -16 -8
-31 -17z"/>
<path d="M5705 2630 c3 -5 13 -10 21 -10 8 0 14 5 14 10 0 6 -9 10 -21 10 -11
0 -17 -4 -14 -10z"/>
<path d="M5515 2490 c3 -5 15 -10 26 -10 10 0 19 5 19 10 0 6 -12 10 -26 10
-14 0 -23 -4 -19 -10z"/>
<path d="M5030 2347 c0 -2 7 -26 15 -54 12 -39 27 -62 62 -92 25 -23 51 -41
57 -41 6 0 -1 8 -14 17 -30 21 -50 45 -44 55 2 4 -4 13 -13 20 -22 16 -43 52
-43 72 0 8 -4 18 -10 21 -5 3 -10 4 -10 2z"/>
<path d="M3320 2930 c-9 -6 -10 -10 -3 -10 6 0 15 5 18 10 8 12 4 12 -15 0z"/>
<path d="M1995 2730 c-7 -11 44 -68 65 -72 8 -2 18 -6 21 -10 3 -5 14 -1 25 8
16 13 16 15 2 10 -10 -3 -18 0 -18 6 0 7 -4 7 -13 -1 -20 -16 -56 24 -39 41 7
7 12 15 12 18 0 10 -49 10 -55 0z"/>
<path d="M2483 2728 c2 -7 10 -13 17 -13 7 0 15 6 18 13 2 7 -5 12 -18 12 -13
0 -20 -5 -17 -12z"/>
<path d="M4332 1942 c-12 -8 -22 -19 -22 -25 0 -5 9 -2 21 9 16 15 24 16 39 6
25 -16 31 -15 24 2 -8 21 -37 25 -62 8z"/>
<path d="M4340 1920 c0 -5 5 -10 10 -10 6 0 10 5 10 10 0 6 -4 10 -10 10 -5 0
-10 -4 -10 -10z"/>
<path d="M3957 1964 c-9 -10 2 -24 19 -24 8 0 14 7 14 15 0 15 -21 21 -33 9z"/>
<path d="M3880 1906 c-8 -10 -6 -15 6 -20 17 -7 34 0 34 14 0 15 -28 19 -40 6z"/>
<path d="M4513 1788 c-13 -6 -23 -18 -23 -27 0 -12 3 -12 12 -3 20 20 55 13
77 -14 12 -15 21 -22 21 -16 0 6 8 13 18 15 14 4 13 5 -4 6 -11 0 -31 12 -44
26 -26 28 -26 28 -57 13z"/>
<path d="M4514 1749 c-3 -6 -2 -15 3 -20 5 -5 9 -1 9 11 0 23 -2 24 -12 9z"/>
<path d="M4595 1690 c-3 -6 1 -7 9 -4 18 7 21 14 7 14 -6 0 -13 -4 -16 -10z"/>
<path d="M3450 1547 c0 -8 -30 -35 -67 -60 -106 -74 -117 -85 -103 -102 10
-12 24 -6 93 40 126 84 122 80 109 110 -12 27 -32 34 -32 12z m-130 -141 c0
-2 -7 -7 -16 -10 -8 -3 -12 -2 -9 4 6 10 25 14 25 6z"/>
<path d="M3593 1328 c2 -7 10 -13 17 -13 7 0 15 6 18 13 2 7 -5 12 -18 12 -13
0 -20 -5 -17 -12z"/>
<path d="M3692 1203 c-6 -2 -10 -9 -6 -14 8 -14 21 -11 28 6 6 15 1 17 -22 8z"/>
<path d="M9290 5951 c0 -6 4 -11 8 -11 5 0 30 -20 56 -45 27 -25 53 -45 58
-45 6 0 -11 19 -37 43 -65 57 -85 70 -85 58z"/>
<path d="M9282 5908 c6 -18 28 -21 28 -4 0 9 -7 16 -16 16 -9 0 -14 -5 -12
-12z"/>
<path d="M9430 5836 c0 -2 7 -7 16 -10 8 -3 12 -2 9 4 -6 10 -25 14 -25 6z"/>
<path d="M9425 5800 c-19 -7 -19 -8 -2 -15 10 -4 23 -3 29 3 14 14 -3 21 -27
12z"/>
<path d="M9515 5780 c10 -11 20 -20 22 -20 2 0 -1 9 -7 20 -6 11 -16 20 -22
20 -6 0 -3 -9 7 -20z"/>
<path d="M9570 5713 c0 -5 7 -18 15 -29 13 -18 14 -18 8 4 -5 22 -23 41 -23
25z"/>
<path d="M9528 5693 c6 -2 18 -2 25 0 6 3 1 5 -13 5 -14 0 -19 -2 -12 -5z"/>
<path d="M9530 5670 c0 -5 4 -10 9 -10 6 0 13 5 16 10 3 6 -1 10 -9 10 -9 0
-16 -4 -16 -10z"/>
<path d="M5218 5637 c-30 -27 -35 -37 -30 -65 5 -37 11 -39 44 -13 13 11 36
23 51 26 46 12 53 31 20 59 -36 33 -42 32 -85 -7z m48 -35 c-13 -13 -17 -13
-32 2 -15 16 -15 18 2 31 17 12 21 12 32 -3 10 -13 10 -19 -2 -30z"/>
<path d="M9530 5630 c0 -5 9 -10 20 -10 11 0 20 5 20 10 0 6 -9 10 -20 10 -11
0 -20 -4 -20 -10z"/>
<path d="M9655 5531 c6 -11 4 -13 -10 -7 -17 6 -18 5 -3 -11 8 -10 21 -27 27
-38 11 -17 12 -16 6 15 -3 19 -10 39 -17 45 -8 7 -9 6 -3 -4z"/>
<path d="M5002 5490 c-27 -17 -30 -22 -20 -34 11 -12 13 -11 16 5 2 11 12 19
23 19 10 0 19 7 19 15 0 19 2 19 -38 -5z"/>
<path d="M9640 5471 c0 -6 4 -13 10 -16 6 -3 7 1 4 9 -7 18 -14 21 -14 7z"/>
<path d="M5020 5432 c0 -14 11 -21 26 -15 21 8 17 23 -6 23 -11 0 -20 -4 -20
-8z"/>
<path d="M9590 5430 c0 -5 9 -10 20 -10 11 0 20 5 20 10 0 6 -9 10 -20 10 -11
0 -20 -4 -20 -10z"/>
<path d="M4897 5353 c-4 -3 -7 -11 -7 -17 0 -6 5 -5 12 2 6 6 9 14 7 17 -3 3
-9 2 -12 -2z"/>
<path d="M9691 5334 c0 -11 3 -14 6 -6 3 7 2 16 -1 19 -3 4 -6 -2 -5 -13z"/>
<path d="M9590 5232 c0 -14 11 -21 26 -15 21 8 17 23 -6 23 -11 0 -20 -4 -20
-8z"/>
<path d="M9635 5100 c-3 -5 -1 -10 4 -10 6 0 11 5 11 10 0 6 -2 10 -4 10 -3 0
-8 -4 -11 -10z"/>
<path d="M9593 5084 c-14 -15 -3 -27 14 -16 7 4 9 13 5 19 -5 8 -11 7 -19 -3z"/>
<path d="M9537 5033 c-12 -11 -8 -23 8 -23 8 0 15 -4 15 -10 0 -5 8 -6 17 -3
15 6 16 5 3 -9 -8 -9 -19 -13 -24 -10 -5 3 -6 0 -2 -7 5 -8 -6 -26 -28 -48
-19 -20 -32 -41 -29 -47 4 -6 -1 -5 -11 3 -14 12 -17 12 -14 1 2 -10 -6 -14
-28 -12 -21 2 -33 -2 -37 -12 -5 -13 -2 -13 20 -5 16 6 29 6 32 1 9 -14 51 5
51 22 0 7 7 16 15 20 8 3 15 10 15 16 0 6 9 21 21 33 11 12 28 35 36 51 14 28
14 29 -5 24 -13 -4 -23 0 -26 8 -6 15 -19 18 -29 7z"/>
<path d="M4801 4963 c-19 -9 -28 -19 -21 -21 7 -3 16 1 20 8 4 7 15 10 24 7
10 -4 16 -1 16 8 0 18 3 18 -39 -2z"/>
<path d="M9430 4830 c-9 -6 -10 -10 -3 -10 6 0 15 5 18 10 8 12 4 12 -15 0z"/>
<path d="M9385 4799 c-4 -6 -14 -8 -22 -5 -8 3 -11 2 -8 -3 3 -6 -3 -14 -12
-20 -10 -6 -14 -11 -10 -11 4 0 25 11 45 25 20 14 31 25 25 25 -7 0 -15 -5
-18 -11z"/>
<path d="M9211 4774 c0 -11 3 -14 6 -6 3 7 2 16 -1 19 -3 4 -6 -2 -5 -13z"/>
<path d="M4603 4768 c2 -7 10 -13 17 -13 7 0 15 6 18 13 2 7 -5 12 -18 12 -13
0 -20 -5 -17 -12z"/>
<path d="M9267 4763 c-15 -14 -5 -23 24 -21 27 2 28 4 13 15 -20 15 -28 16
-37 6z"/>
<path d="M9235 4659 c-59 -45 -65 -54 -17 -28 24 13 48 32 53 42 13 22 11 22
-36 -14z"/>
<path d="M4415 4650 c-8 -13 20 -24 36 -15 8 6 7 10 -2 16 -18 11 -26 11 -34
-1z"/>
<path d="M8815 4358 c-192 -138 -384 -274 -425 -303 -41 -28 -127 -89 -190
-135 -63 -46 -164 -118 -225 -160 -60 -42 -181 -128 -267 -191 -87 -63 -171
-124 -188 -136 -17 -12 -27 -24 -23 -26 5 -3 37 17 73 44 36 27 108 78 161
113 53 36 102 71 110 78 8 8 22 17 32 21 9 3 17 11 17 17 0 5 7 10 15 10 8 0
15 4 15 10 0 5 15 17 33 26 17 9 35 22 39 28 4 6 8 8 8 4 0 -4 11 3 24 15 13
12 66 51 117 86 96 66 108 75 138 101 9 9 35 27 56 40 22 13 52 33 66 44 14
12 36 28 48 36 12 8 32 23 44 32 71 54 118 88 122 88 3 0 49 33 103 73 54 39
128 92 165 116 37 25 67 48 67 53 0 4 6 8 14 8 8 0 16 5 18 11 2 6 20 21 39
33 91 54 138 88 143 101 3 8 4 15 3 15 -1 0 -159 -114 -352 -252z"/>
<path d="M4225 4520 c-8 -12 20 -24 35 -15 6 3 8 11 5 16 -8 12 -32 12 -40 -1z"/>
<path d="M8732 4447 c-25 -27 -30 -47 -5 -22 9 10 26 15 40 12 25 -5 29 3 11
21 -17 17 -21 15 -46 -11z"/>
<path d="M4055 4430 c-3 -5 -1 -10 4 -10 6 0 11 5 11 10 0 6 -2 10 -4 10 -3 0
-8 -4 -11 -10z"/>
<path d="M4043 4388 c2 -7 10 -13 17 -13 7 0 15 6 18 13 2 7 -5 12 -18 12 -13
0 -20 -5 -17 -12z"/>
<path d="M8720 4372 c0 -4 9 -13 21 -20 16 -10 19 -10 13 -1 -5 9 -2 11 9 6
11 -4 14 -2 10 9 -5 14 -53 20 -53 6z"/>
<path d="M3850 4260 c0 -5 9 -10 19 -10 11 0 23 5 26 10 4 6 -5 10 -19 10 -14
0 -26 -4 -26 -10z"/>
<path d="M8545 4250 c-8 -13 20 -24 36 -15 8 6 7 10 -2 16 -18 11 -26 11 -34
-1z"/>
<path d="M8407 4216 c-12 -9 -14 -16 -8 -21 6 -3 18 0 26 9 27 27 14 36 -18
12z"/>
<path d="M3667 4143 c-14 -13 -6 -23 18 -23 28 0 34 15 9 24 -19 7 -19 7 -27
-1z"/>
<path d="M3530 4080 c-9 -6 -10 -10 -3 -10 6 0 15 5 18 10 8 12 4 12 -15 0z"/>
<path d="M3477 4014 c-11 -11 3 -24 24 -24 12 0 19 5 17 13 -5 14 -31 21 -41
11z"/>
<path d="M8187 3994 c-9 -10 2 -24 19 -24 8 0 14 7 14 15 0 15 -21 21 -33 9z"/>
<path d="M3287 3884 c-10 -11 3 -24 24 -24 10 0 19 7 19 15 0 15 -31 21 -43 9z"/>
<path d="M8005 3861 c-7 -12 12 -24 25 -16 11 7 4 25 -10 25 -5 0 -11 -4 -15
-9z"/>
<path d="M3095 3780 c-3 -6 1 -7 9 -4 18 7 21 14 7 14 -6 0 -13 -4 -16 -10z"/>
<path d="M3095 3750 c-8 -12 20 -24 35 -15 5 3 10 10 10 16 0 12 -37 12 -45
-1z"/>
<path d="M7822 3728 c5 -15 28 -18 29 -3 0 6 -7 12 -17 13 -10 3 -15 -1 -12
-10z"/>
<path d="M2907 3624 c-14 -14 -7 -25 13 -22 12 2 21 8 21 13 0 12 -24 18 -34
9z"/>
<path d="M7640 3595 c0 -10 7 -15 18 -13 21 4 19 22 -2 26 -10 2 -16 -3 -16
-13z"/>
<path d="M2723 3493 c-7 -2 -13 -9 -13 -15 0 -12 41 -6 41 7 1 12 -11 15 -28
8z"/>
<path d="M7457 3474 c-9 -10 2 -24 19 -24 8 0 14 7 14 15 0 15 -21 21 -33 9z"/>
<path d="M7420 3364 c-25 -19 -88 -63 -140 -99 -52 -36 -107 -76 -122 -90 -15
-14 -30 -25 -34 -25 -7 0 -44 -27 -142 -100 -26 -20 -82 -60 -124 -90 -43 -29
-76 -55 -74 -58 3 -2 26 11 51 30 26 18 63 44 84 58 20 14 52 37 72 53 20 15
39 27 42 27 6 0 75 50 119 85 9 8 41 30 70 49 29 19 62 43 74 53 11 10 52 39
90 65 68 45 106 79 88 77 -5 0 -29 -16 -54 -35z"/>
<path d="M2533 3363 c-7 -2 -13 -9 -13 -15 0 -12 41 -6 41 7 1 12 -11 15 -28
8z"/>
<path d="M7270 3330 c0 -5 9 -10 20 -10 11 0 20 5 20 10 0 6 -9 10 -20 10 -11
0 -20 -4 -20 -10z"/>
<path d="M2336 3265 c-16 -12 -17 -15 -4 -15 9 0 18 7 22 15 7 18 6 18 -18 0z"/>
<path d="M2330 3220 c0 -5 9 -10 20 -10 11 0 20 5 20 10 0 6 -9 10 -20 10 -11
0 -20 -4 -20 -10z"/>
<path d="M7096 3213 c-11 -11 -6 -23 8 -23 8 0 17 4 20 9 7 10 -19 23 -28 14z"/>
<path d="M2135 3090 c-8 -12 20 -24 35 -15 5 3 10 10 10 16 0 12 -37 12 -45
-1z"/>
<path d="M2045 3064 l-30 -26 33 22 c17 12 32 23 32 26 0 7 -4 5 -35 -22z"/>
<path d="M6900 3072 c0 -14 11 -21 26 -15 21 8 17 23 -6 23 -11 0 -20 -4 -20
-8z"/>
<path d="M1953 3013 c4 -3 1 -13 -6 -22 -11 -14 -10 -14 5 -2 16 12 16 31 1
31 -4 0 -3 -3 0 -7z"/>
<path d="M1947 2964 c-14 -14 -7 -25 13 -22 12 2 21 8 21 13 0 12 -24 18 -34
9z"/>
<path d="M6715 2940 c-8 -12 20 -24 35 -15 6 3 8 11 5 16 -8 12 -32 12 -40 -1z"/>
<path d="M6708 2854 c-21 -13 -38 -26 -38 -28 0 -8 58 25 70 39 16 20 12 18
-32 -11z"/>
<path d="M1745 2820 c-4 -6 5 -10 19 -10 14 0 26 5 26 10 0 6 -9 10 -19 10
-11 0 -23 -4 -26 -10z"/>
<path d="M6535 2810 c-9 -15 4 -30 20 -23 8 3 15 9 15 13 0 12 -29 20 -35 10z"/>
<path d="M6563 2751 c-51 -36 -147 -104 -212 -151 -65 -47 -118 -86 -116 -88
5 -6 48 19 82 47 56 47 115 86 124 83 5 -1 12 5 15 13 4 8 13 15 20 15 8 0 17
7 20 15 4 8 11 15 16 15 6 0 19 10 29 22 11 11 19 18 19 14 0 -9 58 30 84 56
36 37 10 24 -81 -41z"/>
<path d="M6343 2668 c2 -7 10 -13 17 -13 7 0 15 6 18 13 2 7 -5 12 -18 12 -13
0 -20 -5 -17 -12z"/>
<path d="M2408 2572 c-31 -19 -39 -39 -10 -23 16 9 51 42 41 40 -2 0 -16 -8
-31 -17z"/>
<path d="M2247 2573 c-9 -8 22 -43 39 -43 22 0 28 23 9 37 -21 14 -38 17 -48
6z"/>
<path d="M6150 2530 c0 -5 9 -10 20 -10 11 0 20 5 20 10 0 6 -9 10 -20 10 -11
0 -20 -4 -20 -10z"/>
<path d="M2172 2521 c-11 -6 -11 -10 0 -19 16 -13 44 1 34 17 -8 13 -16 14
-34 2z"/>
<path d="M2345 2520 c-3 -5 -2 -10 4 -10 5 0 13 5 16 10 3 6 2 10 -4 10 -5 0
-13 -4 -16 -10z"/>
<path d="M6218 2493 c7 -3 16 -2 19 1 4 3 -2 6 -13 5 -11 0 -14 -3 -6 -6z"/>
<path d="M2267 2470 c-41 -25 -44 -31 -9 -19 30 10 49 26 41 33 -2 2 -16 -4
-32 -14z"/>
<path d="M6020 2364 c-96 -69 -182 -133 -190 -142 -8 -9 2 -4 22 11 20 15 41
26 45 25 9 -3 15 1 79 56 23 20 47 36 53 36 6 0 11 4 11 10 0 5 17 19 38 30
34 18 134 99 122 99 -3 0 -84 -56 -180 -125z"/>
<path d="M5960 2401 c0 -11 26 -22 34 -14 12 12 5 23 -14 23 -11 0 -20 -4 -20
-9z"/>
<path d="M2130 2370 c-14 -11 -20 -20 -14 -20 6 0 21 9 34 20 30 26 13 26 -20
0z"/>
<path d="M2085 2370 c-3 -5 -2 -10 4 -10 5 0 13 5 16 10 3 6 2 10 -4 10 -5 0
-13 -4 -16 -10z"/>
<path d="M2775 2361 c11 -13 34 -32 50 -43 l30 -21 -25 24 c-14 13 -37 33 -50
44 l-25 20 20 -24z"/>
<path d="M2073 2323 c-15 -5 -17 -23 -4 -23 5 0 11 7 15 15 3 8 4 15 3 14 -1
0 -8 -3 -14 -6z"/>
<path d="M5775 2270 c-3 -6 1 -13 10 -16 19 -8 30 0 20 15 -8 14 -22 14 -30 1z"/>
<path d="M5731 2155 c-102 -74 -112 -89 -20 -26 65 43 112 82 98 81 -2 -1 -37
-25 -78 -55z"/>
<path d="M5583 2128 c2 -7 10 -13 17 -13 7 0 15 6 18 13 2 7 -5 12 -18 12 -13
0 -20 -5 -17 -12z"/>
<path d="M2661 2106 c-1 -21 66 -86 89 -86 34 0 112 72 95 88 -4 4 -10 0 -13
-8 -8 -24 -59 -70 -76 -70 -18 0 -80 56 -89 80 -4 11 -6 10 -6 -4z"/>
<path d="M5547 2023 c-81 -57 -103 -87 -26 -34 47 32 117 90 109 90 -3 0 -40
-25 -83 -56z"/>
<path d="M1663 2044 c-44 -26 -55 -44 -28 -44 8 0 15 4 15 8 0 5 11 15 24 22
14 7 27 19 30 26 7 18 8 18 -41 -12z"/>
<path d="M1590 1990 c-9 -6 -10 -10 -3 -10 6 0 15 5 18 10 8 12 4 12 -15 0z"/>
<path d="M5393 1988 c2 -7 10 -13 17 -13 7 0 15 6 18 13 2 7 -5 12 -18 12 -13
0 -20 -5 -17 -12z"/>
<path d="M5255 1814 c-93 -68 -200 -144 -237 -168 -38 -25 -68 -51 -68 -57 0
-8 6 -7 19 2 10 8 51 39 92 69 40 30 87 65 104 77 16 13 73 52 125 87 113 77
146 103 140 109 -3 2 -81 -51 -175 -119z"/>
<path d="M1465 1900 c-3 -6 1 -7 9 -4 18 7 21 14 7 14 -6 0 -13 -4 -16 -10z"/>
<path d="M1410 1860 c0 -5 5 -10 11 -10 5 0 7 5 4 10 -3 6 -8 10 -11 10 -2 0
-4 -4 -4 -10z"/>
<path d="M5207 1864 c-13 -13 -7 -24 14 -24 11 0 19 5 17 12 -5 14 -22 21 -31
12z"/>
<path d="M3370 1837 c0 -2 14 -16 32 -33 30 -28 30 -17 0 19 -13 15 -32 23
-32 14z"/>
<path d="M5007 1724 c-11 -11 3 -24 24 -24 12 0 19 5 17 13 -5 14 -31 21 -41
11z"/>
<path d="M1382 1664 c-18 -18 -49 -43 -68 -56 -18 -13 -34 -28 -34 -35 0 -6
14 -23 31 -37 l31 -27 35 27 c40 30 94 46 114 33 15 -10 -10 -37 -77 -85 -54
-40 -17 -35 44 6 57 37 92 50 92 33 0 -5 -27 -28 -60 -52 -33 -24 -60 -45 -60
-48 0 -5 12 2 65 37 61 40 69 45 61 32 -4 -7 -2 -12 4 -12 14 0 70 39 70 48 0
4 -34 43 -75 86 -88 95 -117 103 -173 50z"/>
<path d="M4815 1580 c-8 -12 20 -24 35 -15 5 3 10 10 10 16 0 12 -37 12 -45
-1z"/>
<path d="M4647 1378 c-153 -110 -276 -203 -272 -206 3 -3 18 6 33 19 15 14 54
42 87 64 33 21 96 66 140 100 44 34 96 70 115 81 19 10 40 24 46 30 6 5 41 30
78 55 59 40 80 60 59 59 -5 -1 -133 -91 -286 -202z"/>
<path d="M921 1520 c-30 -26 -20 -25 21 0 18 11 26 20 18 20 -8 -1 -26 -10
-39 -20z"/>
<path d="M4622 1438 c7 -19 38 -22 38 -4 0 10 -9 16 -21 16 -12 0 -19 -5 -17
-12z"/>
<path d="M3051 1363 c-1 -23 22 -32 34 -13 3 6 0 10 -9 10 -8 0 -17 6 -19 13
-3 6 -6 2 -6 -10z"/>
<path d="M4423 1298 c2 -7 12 -13 22 -13 10 0 20 6 23 13 2 7 -6 12 -23 12
-17 0 -25 -5 -22 -12z"/>
<path d="M681 1208 c-6 -29 -20 -60 -30 -68 -14 -11 -17 -21 -11 -35 8 -19 9
-19 9 1 1 12 8 24 16 28 8 3 15 11 15 18 0 7 12 26 26 41 l24 29 34 -29 c19
-15 35 -33 35 -40 1 -6 5 -13 11 -15 5 -1 39 -32 75 -67 36 -35 68 -61 71 -58
6 6 8 4 -117 122 -85 80 -136 125 -142 125 -2 0 -9 -24 -16 -52z"/>
<path d="M1903 1227 c-36 -20 -142 -102 -143 -109 0 -12 74 -77 88 -78 7 0 36
16 65 35 28 19 60 35 69 35 20 0 88 -57 88 -73 0 -6 -12 -22 -27 -35 -16 -13
-19 -18 -7 -10 35 22 84 66 84 75 -1 18 -147 162 -170 167 -14 3 -35 0 -47 -7z"/>
<path d="M4230 1154 c0 -9 7 -14 17 -12 25 5 28 28 4 28 -12 0 -21 -6 -21 -16z"/>
<path d="M4280 1115 c-41 -30 -117 -85 -169 -122 -52 -37 -106 -75 -120 -85
-14 -9 -39 -28 -56 -43 -19 -17 -10 -13 25 11 180 123 215 149 218 156 2 4 9
8 15 8 7 0 37 20 66 44 30 25 58 43 61 41 8 -5 45 33 39 39 -2 2 -38 -20 -79
-49z"/>
<path d="M2660 1076 c0 -8 7 -16 15 -20 9 -3 15 0 15 8 0 8 -7 16 -15 20 -9 3
-15 0 -15 -8z"/>
<path d="M4035 1020 c-8 -12 20 -24 35 -15 6 3 8 11 5 16 -8 12 -32 12 -40 -1z"/>
<path d="M1879 987 c19 -20 37 -35 39 -32 5 4 -8 18 -48 50 -15 11 -10 4 9
-18z"/>
<path d="M1035 933 c82 -82 156 -146 135 -118 -23 30 -180 180 -193 183 -7 2
20 -27 58 -65z"/>
<path d="M1938 943 c7 -3 16 -2 19 1 4 3 -2 6 -13 5 -11 0 -14 -3 -6 -6z"/>
<path d="M3840 874 c0 -9 7 -14 17 -12 25 5 28 28 4 28 -12 0 -21 -6 -21 -16z"/>
<path d="M1255 860 c-3 -5 -2 -10 4 -10 5 0 13 5 16 10 3 6 2 10 -4 10 -5 0
-13 -4 -16 -10z"/>
<path d="M3701 847 c2 -1 13 -9 24 -17 19 -14 19 -14 6 3 -7 9 -18 17 -24 17
-6 0 -8 -1 -6 -3z"/>
<path d="M1205 770 c10 -11 20 -20 23 -20 3 0 -3 9 -13 20 -10 11 -20 20 -23
20 -3 0 3 -9 13 -20z"/>
<path d="M1299 681 c35 -34 65 -60 68 -58 5 5 -92 99 -115 111 -9 4 12 -19 47
-53z"/>
<path d="M1380 611 c0 -4 11 -18 25 -31 14 -13 25 -21 25 -17 0 3 -11 17 -25
31 -14 14 -25 22 -25 17z"/>
<path d="M1440 554 c0 -6 15 -24 33 -40 18 -16 47 -47 65 -69 17 -22 32 -35
32 -29 0 14 -129 152 -130 138z"/>
<path d="M1581 401 c-7 -5 -11 -17 -7 -27 15 -50 25 -188 15 -200 -8 -10 -6
-13 9 -11 18 1 19 7 16 67 -9 133 -18 180 -33 171z"/>
</g>
</svg>
